<svg width="34" height="27" viewBox="0 0 34 27" fill="none" xmlns="http://www.w3.org/2000/svg">
<g clip-path="url(#clip0_0_881)">
<path d="M0.0159375 8.80137L0 3.58594C0 3.04277 0.504687 2.64199 1.03594 2.75801L2.92719 3.17461C3.49031 3.2959 3.94719 3.69668 4.14906 4.2293L5.1 6.75L11.8628 8.73281L9.65813 1.07578C9.50406 0.537891 9.91313 0 10.4762 0H12.6066C13.2228 0 13.7859 0.326953 14.0888 0.85957L19.8794 11.0795L25.5744 12.7512C26.4191 12.999 27.2106 13.4104 27.8959 13.9535L29.7234 15.409C30.9984 16.4215 30.685 18.4307 29.155 19.0055C26.9662 19.8281 24.5756 19.96 22.3125 19.3746L6.46531 15.2824C5.87563 15.1295 5.33906 14.8236 4.90875 14.3912L0.504687 9.98789C0.19125 9.67148 0.010625 9.24434 0.010625 8.80137H0.0159375ZM1.7 23.625H32.3C33.2403 23.625 34 24.3791 34 25.3125C34 26.2459 33.2403 27 32.3 27H1.7C0.759687 27 0 26.2459 0 25.3125C0 24.3791 0.759687 23.625 1.7 23.625ZM6.8 19.4062C6.8 18.9587 6.97911 18.5295 7.29792 18.213C7.61673 17.8965 8.04913 17.7188 8.5 17.7188C8.95087 17.7188 9.38327 17.8965 9.70208 18.213C10.0209 18.5295 10.2 18.9587 10.2 19.4062C10.2 19.8538 10.0209 20.283 9.70208 20.5995C9.38327 20.916 8.95087 21.0938 8.5 21.0938C8.04913 21.0938 7.61673 20.916 7.29792 20.5995C6.97911 20.283 6.8 19.8538 6.8 19.4062ZM13.6 18.5625C14.0509 18.5625 14.4833 18.7403 14.8021 19.0568C15.1209 19.3732 15.3 19.8024 15.3 20.25C15.3 20.6976 15.1209 21.1268 14.8021 21.4432C14.4833 21.7597 14.0509 21.9375 13.6 21.9375C13.1491 21.9375 12.7167 21.7597 12.3979 21.4432C12.0791 21.1268 11.9 20.6976 11.9 20.25C11.9 19.8024 12.0791 19.3732 12.3979 19.0568C12.7167 18.7403 13.1491 18.5625 13.6 18.5625Z" fill="white"/>
</g>
<defs>
<clipPath id="clip0_0_881">
<rect width="34" height="27" fill="white"/>
</clipPath>
</defs>
</svg>
