<svg width="28" height="22" viewBox="0 0 28 22" fill="none" xmlns="http://www.w3.org/2000/svg">
<g clip-path="url(#clip0_0_879)">
<path d="M16.6687 4.93711L8.14188 1.79609C7.41125 1.52968 6.60187 1.56836 5.90625 1.91211L3.89812 2.89609C3.4125 3.13671 3.3775 3.80273 3.8325 4.09062L10.2594 8.15117L5.95 10.3125L3.40375 9.19961C3.02313 9.03203 2.58125 9.04062 2.20937 9.22539L0.800625 9.91718C0.39375 10.1191 0.284375 10.6391 0.581875 10.9785L3.78 14.6437C4.04688 14.9488 4.43625 15.125 4.84312 15.125H10.8675C11.0862 15.125 11.3006 15.0734 11.4931 14.9789L23.4325 9.11796C25.4669 8.11679 27.0419 6.39804 27.8425 4.30546C28.2581 3.22265 27.44 2.0625 26.2588 2.0625H23.7475C22.8637 2.0625 21.9888 2.26875 21.2013 2.66406L16.6687 4.93711ZM0 20.625C0 21.3855 0.625625 22 1.4 22H26.6C27.3744 22 28 21.3855 28 20.625C28 19.8644 27.3744 19.25 26.6 19.25H1.4C0.625625 19.25 0 19.8644 0 20.625Z" fill="white"/>
</g>
<defs>
<clipPath id="clip0_0_879">
<rect width="28" height="22" fill="white"/>
</clipPath>
</defs>
</svg>
