<svg width="53" height="53" viewBox="0 0 53 53" fill="none" xmlns="http://www.w3.org/2000/svg">
<g clip-path="url(#clip0_4102_265)">
<path d="M12.0802 3.49883C12.546 2.86738 13.2914 2.48438 14.0781 2.48438H38.9218C39.7085 2.48438 40.4538 2.85703 40.9197 3.49883L52.5134 19.2332C53.2173 20.1855 53.1449 21.5002 52.3581 22.3801L28.3425 48.8801C27.8767 49.3977 27.2039 49.6979 26.4999 49.6979C25.796 49.6979 25.1335 49.3977 24.6574 48.8801L0.641744 22.3801C-0.155326 21.5002 -0.217436 20.1855 0.486471 19.2332L12.0802 3.49883ZM16.0656 7.61875C15.724 7.87754 15.6308 8.34336 15.8482 8.70566L21.79 18.6018L6.55249 19.875C6.12807 19.9061 5.79682 20.2684 5.79682 20.7031C5.79682 21.1379 6.12807 21.4898 6.55249 21.5312L26.4275 23.1875C26.4689 23.1875 26.5207 23.1875 26.5621 23.1875L46.4371 21.5312C46.8615 21.5002 47.1927 21.1379 47.1927 20.7031C47.1927 20.2684 46.8615 19.9164 46.4371 19.875L31.2099 18.6121L37.1517 8.71602C37.3691 8.35371 37.2759 7.87754 36.9343 7.6291C36.5927 7.38066 36.1166 7.42207 35.8267 7.73262L26.4999 17.8254L17.1732 7.72227C16.8833 7.41172 16.4072 7.37031 16.0656 7.61875Z" fill="white"/>
</g>
<defs>
<clipPath id="clip0_4102_265">
<rect width="53" height="53" fill="white"/>
</clipPath>
</defs>
</svg>
