<svg width="57" height="46" viewBox="0 0 57 46" fill="none" xmlns="http://www.w3.org/2000/svg">
<g clip-path="url(#clip0_4102_271)">
<path d="M31.5103 4.86054L29.4084 0.566012C29.0611 -0.179691 27.9745 -0.206645 27.5916 0.566012L25.4897 4.86054L20.8317 5.53437C20.0034 5.66015 19.6472 6.69336 20.2617 7.31328L23.6461 10.6375L22.8445 15.3184C22.7198 16.1539 23.5748 16.8008 24.3408 16.4144L28.5178 14.1863L32.6681 16.3785C33.4341 16.7648 34.298 16.118 34.1644 15.2824L33.3628 10.6016L36.7472 7.31328C37.3528 6.70234 37.0055 5.66914 36.1772 5.53437L31.5192 4.86054H31.5103ZM22.8 23C21.2236 23 19.95 24.2848 19.95 25.875V43.125C19.95 44.7152 21.2236 46 22.8 46H34.2C35.7764 46 37.05 44.7152 37.05 43.125V25.875C37.05 24.2848 35.7764 23 34.2 23H22.8ZM2.85 28.75C1.27359 28.75 0 30.0348 0 31.625V43.125C0 44.7152 1.27359 46 2.85 46H14.25C15.8264 46 17.1 44.7152 17.1 43.125V31.625C17.1 30.0348 15.8264 28.75 14.25 28.75H2.85ZM39.9 37.375V43.125C39.9 44.7152 41.1736 46 42.75 46H54.15C55.7264 46 57 44.7152 57 43.125V37.375C57 35.7848 55.7264 34.5 54.15 34.5H42.75C41.1736 34.5 39.9 35.7848 39.9 37.375Z" fill="white"/>
</g>
<defs>
<clipPath id="clip0_4102_271">
<rect width="57" height="46" fill="white"/>
</clipPath>
</defs>
</svg>
