<svg width="28" height="28" viewBox="0 0 28 28" fill="none" xmlns="http://www.w3.org/2000/svg">
<path d="M14 5.3623C13.601 5.3623 13.2642 5.22508 12.9898 4.95062C12.7153 4.67616 12.5781 4.33943 12.5781 3.94043V1.44043C12.5781 1.04143 12.7153 0.704701 12.9898 0.430243C13.2642 0.155784 13.601 0.0185547 14 0.0185547C14.399 0.0185547 14.7357 0.155784 15.0102 0.430243C15.2846 0.704701 15.4218 1.04143 15.4218 1.44043V3.94043C15.4218 4.33943 15.2846 4.67616 15.0102 4.95062C14.7357 5.22508 14.399 5.3623 14 5.3623ZM20.1053 7.8949C19.8412 7.63088 19.7092 7.30333 19.7092 6.91224C19.7092 6.52116 19.8412 6.18567 20.1053 5.90578L21.8553 4.12453C22.1401 3.83965 22.4769 3.69721 22.8655 3.69721C23.2541 3.69721 23.5908 3.83965 23.8757 4.12453C24.1447 4.38857 24.2779 4.72009 24.2754 5.11909C24.273 5.51811 24.1397 5.84963 23.8757 6.11365L22.0944 7.8949C21.8304 8.15894 21.4988 8.29096 21.0998 8.29096C20.7008 8.29096 20.3693 8.15894 20.1053 7.8949ZM24.0597 15.4221C23.6607 15.4221 23.324 15.2849 23.0496 15.0104C22.7751 14.7359 22.6379 14.3992 22.6379 14.0002C22.6379 13.6012 22.7751 13.2645 23.0496 12.99C23.324 12.7156 23.6607 12.5783 24.0597 12.5783H26.5597C26.9587 12.5783 27.2955 12.7156 27.5699 12.99C27.8444 13.2645 27.9816 13.6012 27.9816 14.0002C27.9816 14.3992 27.8444 14.7359 27.5699 15.0104C27.2955 15.2849 26.9587 15.4221 26.5597 15.4221H24.0597ZM14 27.9819C13.601 27.9819 13.2642 27.8446 12.9898 27.5702C12.7153 27.2957 12.5781 26.959 12.5781 26.56V24.06C12.5781 23.661 12.7153 23.3243 12.9898 23.0498C13.2642 22.7753 13.601 22.6381 14 22.6381C14.399 22.6381 14.7357 22.7753 15.0102 23.0498C15.2846 23.3243 15.4218 23.661 15.4218 24.06V26.56C15.4218 26.959 15.2846 27.2957 15.0102 27.5702C14.7357 27.8446 14.399 27.9819 14 27.9819ZM5.90553 7.8949L4.12428 6.1449C3.8394 5.86502 3.69697 5.52558 3.69697 5.12656C3.69697 4.72756 3.8394 4.39355 4.12428 4.12453C4.3933 3.86048 4.72607 3.72846 5.12259 3.72846C5.51911 3.72846 5.84938 3.86048 6.1134 4.12453L7.89465 5.90578C8.1637 6.1748 8.29822 6.50881 8.29822 6.90781C8.29822 7.30683 8.1637 7.63836 7.89465 7.9024C7.6098 8.16644 7.27704 8.29721 6.89637 8.29471C6.51571 8.29221 6.18542 8.15894 5.90553 7.8949ZM21.8478 23.8759L20.0978 22.0947C19.8337 21.8098 19.703 21.4718 19.7055 21.0807C19.708 20.6896 19.8412 20.3621 20.1053 20.098C20.3693 19.834 20.6956 19.702 21.0842 19.702C21.4728 19.702 21.8095 19.834 22.0944 20.098L23.8757 21.848C24.1605 22.1121 24.2978 22.4436 24.2873 22.8426C24.2769 23.2416 24.1397 23.586 23.8757 23.8759C23.5908 24.1658 23.2488 24.3107 22.8498 24.3107C22.4508 24.3107 22.1168 24.1658 21.8478 23.8759ZM1.44019 15.4221C1.04119 15.4221 0.704456 15.2849 0.429998 15.0104C0.15554 14.7359 0.0183105 14.3992 0.0183105 14.0002C0.0183105 13.6012 0.15554 13.2645 0.429998 12.99C0.704456 12.7156 1.04119 12.5783 1.44019 12.5783H3.94019C4.33919 12.5783 4.67591 12.7156 4.95037 12.99C5.22483 13.2645 5.36206 13.6012 5.36206 14.0002C5.36206 14.3992 5.22483 14.7359 4.95037 15.0104C4.67591 15.2849 4.33919 15.4221 3.94019 15.4221H1.44019ZM4.12428 23.8759C3.85526 23.6069 3.72075 23.2741 3.72075 22.8776C3.72075 22.4811 3.85526 22.1483 4.12428 21.8793L5.90553 20.098C6.16957 19.834 6.49713 19.702 6.88822 19.702C7.2793 19.702 7.61728 19.834 7.90215 20.098C8.18703 20.3779 8.32947 20.7147 8.32947 21.1082C8.32947 21.5018 8.18703 21.841 7.90215 22.1259L6.15215 23.8759C5.86728 24.1608 5.52533 24.3032 5.12631 24.3032C4.72731 24.3032 4.3933 24.1608 4.12428 23.8759ZM14 21.4404C11.9316 21.4404 10.1744 20.7175 8.72856 19.2716C7.28269 17.8257 6.55975 16.0686 6.55975 14.0002C6.55975 11.9318 7.28269 10.1747 8.72856 8.72881C10.1744 7.28293 11.9316 6.55999 14 6.55999C16.0684 6.55999 17.8255 7.28293 19.2714 8.72881C20.7172 10.1747 21.4402 11.9318 21.4402 14.0002C21.4402 16.0686 20.7172 17.8257 19.2714 19.2716C17.8255 20.7175 16.0684 21.4404 14 21.4404ZM14 18.5967C15.2703 18.5967 16.354 18.1482 17.251 17.2512C18.1479 16.3543 18.5964 15.2706 18.5964 14.0002C18.5964 12.7298 18.1479 11.6462 17.251 10.7492C16.354 9.85223 15.2703 9.40374 14 9.40374C12.7296 9.40374 11.6459 9.85223 10.749 10.7492C9.85199 11.6462 9.4035 12.7298 9.4035 14.0002C9.4035 15.2706 9.85199 16.3543 10.749 17.2512C11.6459 18.1482 12.7296 18.5967 14 18.5967Z" fill="white"/>
</svg>
