<svg xmlns="http://www.w3.org/2000/svg" height="24" viewBox="0 -960 960 960" width="24"><path fill='#fff' d="M479.462-140q-8.539 0-14.27-5.731-5.731-5.73-5.731-14.269v-61.385q-47.307-6.153-81.692-30.384-34.384-24.231-54.615-66.923-3.154-7.077.269-15.27 3.423-8.192 11.192-11.346 7.077-2.923 15.154.116 8.077 3.038 11.462 10.346 17.769 36.154 46.461 55.5Q436.385-260 482.846-260q45.616 0 83.346-22.731 37.731-22.731 37.731-73.269 0-42.692-27.769-68.577-27.769-25.884-103.923-50.346-77.539-24.692-109.154-56.423-31.616-31.731-31.616-82.654 0-55.769 42.77-89.077 42.769-33.308 85.23-36V-800q0-8.539 5.731-14.269 5.731-5.731 14.27-5.731 8.538 0 14.269 5.731 5.731 5.73 5.731 14.269v60.923q35.692 3.692 63.307 18.346 27.616 14.654 47.154 41.654 4.385 6.846 2.346 14.385-2.038 7.538-9.807 11.461-7.077 3.693-14.77 1.654-7.692-2.038-13.769-9.115-15.308-18.616-37.423-29.962Q514.385-702 481.462-702q-46.308 0-78.154 24.5-31.846 24.5-31.846 63.5 0 36.846 26.154 59.692 26.153 22.846 104.769 47.693 72.846 23.076 107.192 59.269 34.346 36.192 34.346 90.884 0 60.231-42.384 95.693-42.385 35.461-102.077 39.846V-160q0 8.539-5.731 14.269Q488-140 479.462-140Z"/></svg>