<svg width="25" height="25" viewBox="0 0 25 25" fill="none" xmlns="http://www.w3.org/2000/svg">
<path d="M12.1275 24.1167C8.71353 24.1167 5.83878 22.9503 3.50327 20.6174C1.16776 18.2846 0 15.4111 0 11.9971C0 9.02079 0.941544 6.40485 2.82463 4.14929C4.70772 1.89374 7.18888 0.526592 10.2681 0.047859C10.6101 -0.0284743 10.9162 -0.0134958 11.1862 0.0927931C11.4563 0.19906 11.6779 0.354849 11.8511 0.56016C12.0243 0.765471 12.131 1.01209 12.1714 1.30003C12.2117 1.58794 12.1589 1.87804 12.013 2.17033C11.7043 2.72684 11.4675 3.30075 11.3025 3.89206C11.1376 4.48335 11.0551 5.10002 11.0551 5.74206C11.0551 7.77971 11.7698 9.51169 13.1993 10.938C14.6287 12.3644 16.3645 13.0776 18.4065 13.0776C19.037 13.0776 19.6645 12.9948 20.2891 12.8294C20.9138 12.6639 21.4795 12.4353 21.9862 12.1435C22.2732 12.0145 22.5524 11.9689 22.8239 12.0066C23.0954 12.0442 23.3299 12.1346 23.5274 12.2776C23.7468 12.4206 23.9097 12.6231 24.0159 12.8852C24.1222 13.1473 24.1399 13.4578 24.0688 13.8167C23.6621 16.8036 22.3193 19.2671 20.0406 21.2069C17.7618 23.1468 15.1242 24.1167 12.1275 24.1167ZM12.1275 21.0834C13.9449 21.0834 15.5876 20.5976 17.0554 19.6261C18.5233 18.6546 19.6154 17.3792 20.3319 15.8C19.9406 15.8899 19.5506 15.9602 19.162 16.0109C18.7733 16.0616 18.386 16.0817 18 16.0711C15.2879 15.9807 12.9774 14.9877 11.0685 13.0921C9.15953 11.1964 8.15459 8.87129 8.05363 6.11669C8.0483 5.73072 8.06967 5.34207 8.11773 4.95076C8.16582 4.55945 8.23744 4.1708 8.3326 3.78483C6.75869 4.50656 5.48333 5.60269 4.50653 7.07323C3.52971 8.54376 3.0413 10.1851 3.0413 11.9971C3.0413 14.5067 3.92829 16.6484 5.70227 18.4224C7.47624 20.1964 9.618 21.0834 12.1275 21.0834Z" fill="white"/>
</svg>
