<svg width="66" height="53" viewBox="0 0 66 53" fill="none" xmlns="http://www.w3.org/2000/svg">
<g filter="url(#filter0_d_0_775)">
<g filter="url(#filter1_d_0_775)">
<path fill-rule="evenodd" clip-rule="evenodd" d="M23.0267 27.6173C23.1008 27.4249 23.1155 27.3069 22.5535 27.0848C21.9917 26.8632 22.0509 26.7157 21.6664 26.0355C21.2819 25.3562 20.587 25.0607 20.587 24.8094C20.587 24.5581 19.9069 24.5878 19.9069 24.7793C19.9069 24.9716 19.6112 25.0312 19.4485 25.1343C19.2857 25.2379 19.212 25.0752 19.064 24.8833C18.9161 24.6913 18.5613 24.4992 18.5613 24.3807C18.5613 24.2631 18.4727 24.0116 18.2215 24.1298C17.9701 24.2481 17.837 24.1298 17.7631 24.2184C17.6892 24.3072 17.4971 24.1642 17.4971 24.1642V16.504C17.4083 16.4948 17.329 16.4798 17.2679 16.4568C16.9464 16.3347 16.4694 16.1133 16.2144 16.1683C15.9593 16.2238 15.4492 16.2902 15.2717 16.2016C15.0944 16.113 14.8503 16.0353 14.4846 16.0906C14.1186 16.1463 13.8858 15.8912 13.4199 15.7802C12.954 15.6694 12.3 15.8135 12.1449 15.869C11.9898 15.9243 12.0227 15.7029 11.8234 15.7251C11.6237 15.7473 11.779 15.6365 11.6681 15.4702C11.557 15.3039 11.0027 15.4591 10.8032 15.4811C10.6037 15.5033 10.5481 15.3814 10.5592 15.2817C10.5701 15.1818 10.3817 15.2153 10.3042 15.3481C10.2266 15.4811 10.0049 15.5033 9.91605 15.4149C9.82719 15.3261 10.1047 15.2928 10.1158 15.1931C10.1269 15.0934 9.8274 15.0379 9.71654 15.0048C9.60568 14.9715 9.42816 15.1156 9.19533 15.3261C8.96249 15.5366 8.61879 15.5144 8.40796 15.4924C8.19733 15.4702 7.93117 15.5146 7.94207 15.6365C7.95339 15.7584 8.20844 15.7473 8.05315 15.9023C7.89785 16.0575 7.84253 15.6918 7.68723 15.8579C7.53193 16.024 7.06626 16.0129 6.95518 15.9909C6.84432 15.9687 6.47862 16.3675 6.36754 16.4786C6.25667 16.5898 6.45619 16.6895 6.15713 17.0108C5.85765 17.3321 5.05917 17.2657 4.89276 17.2657C4.72657 17.2657 4.84855 17.454 4.75968 17.5759C4.67103 17.698 4.85944 17.8088 5.31401 17.9305C5.76878 18.0522 6.07938 18.6507 6.13449 18.7948C6.19003 18.9391 6.75567 18.7839 6.9774 18.8172C7.19913 18.8503 6.95497 19.1605 7.14359 19.2493C7.33199 19.3379 7.62058 19.2049 7.67591 19.3601C7.73145 19.5151 7.29888 19.3601 7.07716 19.5262C6.85521 19.6921 6.74456 19.7704 6.6557 19.6481C6.56684 19.5262 6.20092 19.6037 6.01252 19.6261C5.8239 19.6481 6.00162 19.393 6.01252 19.2824C6.02362 19.1716 5.75746 19.0941 5.39133 19.3046C5.02542 19.5151 5.1585 19.4378 5.11428 19.6037C5.07006 19.7704 4.91477 19.504 4.68193 19.6481C4.44888 19.7922 4.07185 19.8921 4.00542 20.036C3.93877 20.1801 4.50442 20.2799 4.72615 20.3245C4.94788 20.3689 4.45999 20.5126 4.63728 20.5681C4.8148 20.6234 4.73704 20.7899 5.01452 20.934C5.29158 21.0779 5.91276 20.934 6.07916 20.934C6.24535 20.934 6.40065 21.1336 6.53351 20.9893C6.66681 20.8452 7.1658 20.4464 7.42086 20.6791C7.67591 20.912 7.14359 20.8783 7.27667 21.0224C7.40975 21.1667 7.57615 21.51 7.33221 21.6876C7.08826 21.8648 6.85543 21.7429 6.72235 21.7318C6.58927 21.721 6.66702 21.9759 6.45619 22.1418C6.24578 22.3083 6.09048 21.9648 5.82432 21.9648C5.55816 21.9648 5.6137 22.3081 5.6246 22.4742C5.6357 22.6407 5.22557 22.4411 5.1256 22.8401C5.02584 23.2393 4.6046 22.8958 4.88166 23.2835C5.15892 23.6712 5.11449 23.4276 5.33643 23.5829C5.55795 23.7381 5.09228 24.0152 5.31401 24.0594C5.53595 24.1038 5.77989 24.5028 5.93497 24.6469C6.09027 24.791 6.28978 24.5692 6.52262 24.5583C6.75546 24.5472 6.64459 24.2257 6.77767 24.3478C6.91075 24.4697 7.09937 24.8239 6.9774 24.9127C6.85543 25.0015 6.95497 25.2784 6.93297 25.4117C6.91075 25.5447 7.44307 25.5005 7.4764 25.345C7.50972 25.1898 7.93096 25.1454 8.16401 25.4003C8.39685 25.6555 8.4746 25.6995 8.4746 25.5003C8.4746 25.3004 8.67412 25.079 8.68501 25.2449C8.69633 25.4114 8.88474 25.4554 9.22844 25.3004C9.57235 25.1452 9.41706 25.3117 9.23955 25.5331C8.99475 25.8395 9.23955 26.2868 9.06225 26.331C8.88474 26.3754 8.74076 26.8301 8.45239 26.8632C8.16422 26.8967 7.67612 27.4401 7.60969 27.5285C7.54326 27.6173 6.92207 27.3511 6.83342 27.6058C6.74478 27.8607 6.36925 28.0507 6.46751 28.1491C6.53394 28.2157 7.04405 27.9608 7.06626 27.8274C7.08848 27.6948 7.15512 27.717 7.24377 27.8167C7.33242 27.9164 7.55436 27.7727 7.65391 27.6835C7.75366 27.5951 7.92007 27.6282 8.01982 27.6391C8.12001 27.6502 8.16422 27.5174 8.46349 27.4617C8.76276 27.4066 8.69633 27.3175 8.76276 27.1628C8.82962 27.0075 9.53924 26.6749 9.67211 26.6418C9.80519 26.6085 9.72765 26.3871 9.87184 26.3756C10.016 26.3647 10.2375 26.1873 10.4262 26.0319C10.6148 25.8769 10.659 25.9433 10.8032 25.888C10.9474 25.8327 10.8365 25.5447 10.9807 25.522C11.1249 25.5003 11.2357 25.389 11.2357 25.2673C11.2357 25.1454 10.87 25.1454 10.8367 25.0679C10.8034 24.9902 11.1249 24.702 11.2471 24.7131C11.3688 24.7244 11.5686 24.5912 11.5797 24.414C11.5908 24.2368 11.7683 24.2035 11.9125 24.0485C12.0564 23.8931 12.0233 23.7603 12.1675 23.7492C12.3117 23.7381 12.4448 23.5387 12.5999 23.4503C12.7552 23.3615 12.5999 23.5606 12.8994 23.5722C13.1986 23.5831 13.1322 23.8602 12.9105 23.7605C12.6887 23.6606 12.589 23.6717 12.3895 23.8602C12.1897 24.0487 12.345 24.1042 12.1897 24.3145C12.0344 24.5248 12.0233 24.6578 12.2231 24.6802C12.4228 24.7022 12.2344 24.8465 12.0455 24.9018C11.8569 24.9573 11.9902 25.0681 12.2451 25.0681C12.5003 25.0681 12.8769 24.7022 13.2322 24.525C13.587 24.348 13.8531 24.525 13.9529 24.4917C14.0529 24.4588 13.842 24.2923 13.9642 24.2372C14.0862 24.1817 13.82 24.1482 13.7423 23.9377C13.6647 23.7274 13.864 23.8602 13.9085 23.6943C13.9529 23.5278 14.0749 23.594 14.1857 23.6717C14.2966 23.7494 14.4519 23.594 14.5516 23.8049C14.6514 24.0156 14.7623 23.7494 14.9398 23.8935C15.1173 24.0378 14.9064 24.0156 14.7178 24.0598C14.5292 24.1042 14.6292 24.3591 14.7732 24.2374C14.9173 24.1153 15.0393 24.0378 15.1726 24.1599C15.3057 24.2816 15.361 24.2263 15.4721 24.1153C15.5827 24.0047 15.5827 24.1264 15.5827 24.215C15.5827 24.3038 15.8156 24.3367 16.1484 24.3924C16.481 24.4479 17.0797 24.3702 17.235 24.3593C17.3903 24.3484 17.335 24.5918 17.6787 24.6584C18.0224 24.7253 18.1113 24.3151 18.2883 24.4593C18.4661 24.6029 18.2883 24.6584 18.1888 24.7695C18.0888 24.8801 18.2997 24.8912 18.4327 24.9467C18.5658 25.0022 18.8764 25.091 19.0204 25.2347C19.1646 25.379 19.2532 25.534 19.6078 25.7114C19.9628 25.8888 19.6191 25.2682 19.8964 25.4674C20.1735 25.6672 20.0739 25.4785 20.2954 25.6779C20.5172 25.8777 20.4396 25.5893 20.3399 25.2569C20.2401 24.9245 20.4396 25.1461 20.5396 25.3013C20.6394 25.4565 20.6394 25.7558 20.5727 25.9552C20.5061 26.1548 20.1735 25.9883 20.2068 25.8777C20.2401 25.7667 19.874 25.8111 19.8631 25.9663C19.852 26.1215 20.0959 26.4211 20.2734 26.4542C20.4507 26.4877 20.3177 26.7646 20.4287 26.7979C20.5808 26.8434 20.5727 27.1305 20.6616 27.0857C20.75 27.0417 20.7169 26.6982 20.6171 26.5432C20.5172 26.3878 20.5616 26.1657 20.6947 26.2101C20.8278 26.2543 20.6947 26.4875 20.7611 26.565C20.8278 26.6425 20.9053 26.4877 21.0606 26.3989C21.2159 26.3098 20.9939 26.0549 21.0497 25.9219C21.105 25.7887 21.2823 26.0327 21.349 26.2654C21.4154 26.4981 21.1826 26.4877 21.1826 26.6092C21.1826 26.7315 20.9719 26.6758 20.9055 26.7424C20.8389 26.809 20.8722 27.2522 20.9611 27.2631C21.0499 27.2742 21.105 26.8974 21.1608 27.0855C21.2161 27.2742 21.4267 26.8419 21.4823 27.0193C21.5376 27.1965 21.8037 27.3963 21.9037 27.3517C22.0033 27.3075 21.8593 27.119 21.7042 27.1079C21.5487 27.0966 21.5709 26.8419 21.7151 26.8308C21.8593 26.8199 22.1143 27.1965 22.1032 27.3295C22.0921 27.4623 21.9702 27.4512 21.848 27.5846C21.7262 27.7176 21.5598 27.3628 21.4156 27.3739C21.2714 27.385 21.4156 27.6064 21.4825 27.7614C21.5489 27.917 21.305 28.1275 21.4934 28.2495C21.682 28.3711 21.6269 28.172 21.6598 28.0836C21.6931 27.9945 21.8375 28.1053 21.937 28.1833C22.0302 28.255 22.0481 28.0056 22.0481 27.9057C22.0481 27.806 22.2143 27.8613 22.3032 27.9945C22.3918 28.1275 22.4029 27.8504 22.536 27.8724C22.6691 27.8948 22.5804 28.1053 22.5804 28.2272C22.5804 28.3489 22.8133 28.1275 22.7911 28.2606C22.7874 28.2806 22.7879 28.2992 22.79 28.3165C22.9128 28.2285 23.0403 28.1378 23.1311 28.0755C23.3667 27.9128 22.9528 27.8088 23.0267 27.6173ZM4.31583 29.1908C4.58199 29.0802 4.69285 28.9472 4.58199 28.8142C4.47091 28.6812 4.11097 29.2764 4.31583 29.1908ZM6.20093 28.1931C5.95698 28.1047 5.31487 28.4946 5.53574 28.526C5.69104 28.5482 5.75747 28.3932 5.93477 28.3932C6.11228 28.3932 6.44509 28.2821 6.20093 28.1931ZM11.8232 25.5886C11.8343 25.4665 11.6567 25.4776 11.435 25.7327C11.2131 25.9877 11.0249 26.1207 10.9913 26.243C10.9582 26.3647 10.703 26.2206 10.6254 26.3758C10.5479 26.5312 10.6803 26.8752 10.8363 26.7639C10.9913 26.6531 11.0025 26.7639 11.1024 26.7639C11.202 26.7639 11.6567 26.4535 11.7565 26.2979C11.8563 26.1426 11.579 26.0987 11.5681 25.9988C11.5568 25.8991 11.8009 25.8991 11.9229 25.8327C12.0449 25.7658 11.8118 25.7103 11.8232 25.5886ZM4.75945 24.281C4.73724 24.1036 4.26046 24.2699 4.31578 24.4362C4.37132 24.6021 4.8214 24.711 5.01451 24.6467C5.18091 24.591 5.23623 24.4138 5.11426 24.303C4.99229 24.1924 4.78146 24.4584 4.75945 24.281ZM54.3571 33.2624C54.3425 33.1147 53.8989 33.2325 53.6919 33.0703C53.4849 32.9071 53.1301 33.6467 53.0562 33.9569C52.9821 34.2671 52.4352 34.607 52.4352 34.607C52.4352 34.607 50.853 34.6217 50.7199 34.6217C50.6276 34.6217 50.2641 34.9351 50.0507 35.1264C50.0573 35.1348 50.0637 35.1433 50.0695 35.1533C50.2295 35.442 49.648 35.619 49.0937 35.6412C48.9232 35.6478 48.7948 35.6653 48.6959 35.6792C48.7154 35.7471 48.7303 35.8218 48.7244 35.8775C48.7201 35.913 48.6607 35.9567 48.5761 36.0018C48.4913 36.1736 47.8109 36.5052 47.4305 36.7057C47.0091 36.9273 46.4325 36.8165 46.4325 36.4838C46.4325 36.1516 46.7431 36.2178 46.8095 36.373C46.8345 36.4309 46.9095 36.3888 47.0108 36.316C46.9054 36.2136 46.9072 36.0498 46.9298 35.9241C46.8027 35.8683 47.0007 35.3724 46.7431 35.287C46.4769 35.198 46.1664 35.6638 46.2106 35.3752C46.255 35.0869 46.6542 34.8433 46.4103 34.4665C46.1664 34.0897 45.7229 34.0897 45.634 34.3777C45.5454 34.6661 45.2348 34.5331 45.1241 34.7547C45.0133 34.9763 44.9022 35.464 44.9911 35.819C45.0795 36.1734 44.9688 36.3506 44.6363 36.5502C44.3034 36.7496 44.1294 36.2452 44.259 35.5972C44.3479 35.1533 44.5918 34.7327 44.3699 34.7327C44.1479 34.7327 44.6583 34.2005 45.1239 34.0897C45.5896 33.9785 46.1664 34.0233 46.1664 33.8901C46.1664 33.863 46.1875 33.8452 46.2227 33.8329C46.1279 33.7577 46.0224 33.6875 45.9378 33.635C45.929 33.6631 45.9111 33.6898 45.878 33.7125C45.6953 33.8397 45.7449 33.5126 45.4123 33.5126C45.0793 33.5126 44.7469 33.8228 44.4807 33.6905C44.2146 33.5572 44.3477 33.38 44.1037 33.38C43.8596 33.38 44.2812 32.9144 43.9262 33.114C43.5714 33.3136 43.0391 33.8013 42.7953 33.5797C42.5512 33.358 42.3295 33.6463 42.152 33.4686C41.9744 33.291 42.7727 32.8038 43.1499 32.8258C43.2429 32.8309 43.3275 32.7904 43.4067 32.7265C43.2085 32.6539 42.7994 32.4942 42.6915 32.6262C42.5585 32.7887 42.3664 32.6847 42.2628 32.5521C42.1594 32.4191 42.0263 32.5963 41.8488 32.3898C41.6713 32.1823 41.494 32.3305 41.3904 32.3745C41.287 32.4191 41.154 32.3006 40.9615 32.2272C40.7695 32.1529 40.9173 31.9609 40.7545 31.8427C40.5919 31.7244 40.5825 32.0664 40.5825 32.0664L26.7999 32.1407C26.8155 32.164 26.8311 32.1866 26.8488 32.2052C27.015 32.3826 26.8819 32.5152 26.9375 32.7261C26.993 32.9366 26.9486 33.2357 26.7822 33.2357C26.616 33.2357 26.5938 33.0476 26.7155 32.9808C26.8375 32.9144 26.7711 32.6706 26.6491 32.6706C26.578 32.6706 26.5491 32.5871 26.5521 32.4893C26.3259 32.5519 26.0657 32.5233 25.7622 32.4872C25.7671 32.5 25.7718 32.5126 25.7729 32.5267C25.784 32.6595 25.8504 32.9586 26.0279 33.1913C26.2054 33.4242 26.0832 33.5683 26.2496 33.6569C26.416 33.7455 26.4049 33.8455 26.2496 33.8228C26.0943 33.8011 26.2052 33.9452 26.1501 34.278C26.0946 34.6106 26.1057 35.297 26.0723 35.5084C26.039 35.7185 25.7949 36.0624 25.9393 36.284C26.0832 36.5056 26.1832 36.8158 26.1055 37.093C26.0279 37.3701 26.0388 37.536 26.1608 37.7467C26.2827 37.9574 26.183 38.3231 26.3163 38.4006C26.4494 38.4785 26.5713 38.6333 26.6933 38.8327C26.8153 39.0326 26.9261 38.9104 26.9481 39.1101C26.9704 39.3095 26.9704 39.3428 27.1477 39.4203C27.3254 39.4978 27.2143 39.697 27.2143 39.808C27.2143 39.9186 27.4471 40.1186 27.7355 40.3733C28.0237 40.628 27.7797 40.8385 27.9904 40.8385C28.2012 40.8385 28.4007 40.9606 28.6113 41.0937C28.8219 41.2267 28.8886 41.1487 29.0328 41.182C29.1768 41.2154 29.4431 41.5258 29.4985 41.7363C29.5245 41.8353 29.5585 41.9395 29.6108 42.0518L30.7605 41.9011C30.7605 41.9011 31.1161 42.15 31.3174 42.1972C31.5188 42.2444 32.6086 42.6468 32.6086 42.6468L34.0302 42.6345L34.196 42.4218H34.978C34.978 42.4218 35.4755 42.9071 35.5467 42.9314C35.6178 42.9547 35.8666 43.1795 35.8666 43.3219C35.8666 43.4639 35.9258 43.5824 36.0444 43.6415C36.1627 43.7007 36.5656 43.9611 36.6248 43.9372C36.6839 43.9142 36.8027 43.4639 37.0157 43.4761C37.2291 43.4876 37.8094 43.6531 37.9043 43.9848C37.9989 44.3166 38.283 44.589 38.3781 44.6597C38.4727 44.7306 38.4255 44.9319 38.4966 45.0389C38.5675 45.1454 38.5558 45.3465 38.6385 45.3465C38.7218 45.3465 39.1481 45.6072 39.3376 45.595C39.3942 45.5918 39.4688 45.6258 39.5457 45.6727C39.5687 45.2769 39.161 45.2101 39.4011 45.0282C39.6783 44.8172 39.39 44.64 39.523 44.5514C39.6563 44.4628 39.889 44.374 39.889 44.2412C39.889 44.1082 40.0109 44.1082 40.1882 44.1304C40.3657 44.1522 40.6983 43.8418 40.6761 43.7201C40.6539 43.5982 40.7092 43.5764 40.9201 43.6202C41.1307 43.6648 41.0976 43.3761 41.2306 43.4208C41.3637 43.465 41.4748 43.5427 41.4857 43.443C41.4966 43.3433 41.6299 43.3655 41.7296 43.4985C41.8294 43.6313 42.1176 43.6648 42.1398 43.5098C42.162 43.3546 42.3284 43.5098 42.4726 43.665C42.6166 43.8202 42.6832 43.7756 42.8938 43.7867C43.1047 43.798 43.1047 43.7423 43.1156 43.6095C43.1267 43.4767 43.3484 43.8975 43.5592 43.9197C43.7698 43.9421 43.6037 43.7867 43.4484 43.665C43.2931 43.5431 43.4815 43.4874 43.3484 43.3879C43.2153 43.288 43.5146 43.1548 43.7807 43.1665C44.0469 43.1772 44.0358 43.244 44.1358 43.0888C44.2355 42.9331 44.3353 43.0888 44.3353 43.2216C44.3353 43.3548 44.7678 43.1443 45.0007 43.1443C45.2335 43.1443 45.4441 43.3435 45.4663 43.4769C45.4886 43.6097 45.6439 43.6763 45.8103 43.532C45.9765 43.3881 46.1206 43.2218 46.2759 43.3766C46.4312 43.532 46.5863 43.7425 46.7749 43.931C46.9633 44.1191 46.6863 44.3525 46.786 44.4961C46.886 44.6403 46.7749 44.8399 46.9967 44.9951C47.2184 45.1503 47.0189 45.4716 47.1964 45.516C47.3739 45.5602 47.5179 45.8371 47.5401 45.9479C47.5623 46.0587 47.8949 46.2028 47.9171 46.0145C47.9393 45.8262 48.1171 45.6042 48.1391 45.4272C48.1613 45.25 48.006 44.6181 47.8618 44.4186C47.7178 44.219 47.8951 44.1744 47.7178 43.9423C47.5403 43.709 47.4294 43.2991 47.4405 42.9667C47.4517 42.634 47.8398 42.0911 48.0282 41.9246C48.2168 41.7589 48.4274 41.8473 48.4719 41.6699C48.5163 41.4927 48.7491 41.2713 48.882 41.2713C49.0151 41.2713 49.159 41.3042 49.1813 41.1605C49.2035 41.0164 49.4252 40.8385 49.7136 40.7945C50.002 40.7501 49.8356 40.5945 49.758 40.4619C49.6805 40.3289 49.8247 40.1959 49.88 40.2843C49.9355 40.3733 50.113 40.3842 50.2237 40.3065C50.3346 40.229 50.5898 40.0187 50.3457 40.0076C50.1015 39.9965 50.0462 39.8966 50.1904 39.8411C50.3343 39.786 50.2126 39.52 50.0129 39.4978C49.8131 39.4756 49.8798 39.3763 50.0017 39.2535C50.1237 39.1318 49.8242 38.9326 49.6803 38.8325C49.5361 38.7328 49.7689 38.6775 49.8798 38.6553C49.9906 38.6331 49.902 38.1231 49.9575 38.0014C50.0129 37.8797 50.2015 37.8797 50.1239 38.0014C50.0462 38.1229 49.9353 38.3227 50.0795 38.4888C50.2237 38.6551 50.2681 38.8323 50.2126 39.0874C50.157 39.3426 50.2681 39.2762 50.4343 38.9431C50.6007 38.6107 50.6227 38.3227 50.5121 38.2892C50.401 38.2563 50.4121 37.9237 50.5343 38.0787C50.656 38.2341 50.7005 38.2563 50.8891 38.0565C51.0775 37.8571 51.2772 37.514 51.1553 37.436C51.0333 37.3585 51.2108 37.2806 51.4325 37.2924C51.6542 37.3032 52.131 37.1587 52.1644 37.0925C52.2727 36.876 51.3992 37.1922 51.3992 37.0703C51.3992 36.9482 51.9537 36.8263 52.2088 36.8156C52.4638 36.8045 52.3421 36.461 52.4527 36.6049C52.5636 36.749 52.73 36.7266 52.874 36.6382C53.0184 36.5496 52.9075 36.2947 52.7411 36.2507C52.5749 36.2059 52.8631 36.0951 52.8078 35.9956C52.7522 35.8957 52.9188 35.4966 53.1292 35.4527C53.3401 35.4085 53.2403 35.275 53.4176 35.275C53.5949 35.275 53.6282 35.0645 53.7833 34.9095C53.9386 34.7541 54.1606 35.1529 54.4045 34.9315C54.5043 34.8408 54.6395 34.74 54.7781 34.6516C54.2099 33.901 54.3707 33.3988 54.3571 33.2624Z" fill="black" fill-opacity="0.3"/>
</g>
<g filter="url(#filter2_d_0_775)">
<path fill-rule="evenodd" clip-rule="evenodd" d="M25.9029 32.2828C25.7572 32.1256 25.3757 32.1593 25.3195 32.0134C25.2635 31.8678 24.9154 31.3411 24.7248 31.3517C24.5339 31.3631 24.2872 31.3741 24.0626 31.206C23.8383 31.0375 23.6926 31.0267 23.5354 31.1276C23.3782 31.2287 23.7036 31.2508 23.6926 31.3631C23.6813 31.475 23.7933 31.5426 23.9282 31.5202C24.0626 31.4979 24.1411 31.7784 24.276 31.7894C24.4107 31.8008 24.4554 32.0134 24.6126 32.0134C24.7697 32.0134 24.8032 32.1932 24.8819 32.2941C24.9606 32.3954 25.14 32.3053 25.14 32.4064C25.14 32.4967 25.3195 32.5784 25.3649 32.6918C25.672 32.7283 25.9353 32.7573 26.1643 32.694C26.1666 32.6236 26.1846 32.5456 26.2174 32.4846C26.2957 32.339 26.0488 32.4399 25.9029 32.2828ZM25.5215 14.4604C25.9255 14.5503 25.9692 15.2678 26.2396 15.2678C26.4195 15.2678 26.2846 15.0435 26.5764 15.0435C26.8683 15.0435 26.8008 14.8864 27.0702 14.9089C27.3397 14.9314 27.5641 14.8415 27.5641 14.5276C27.5641 14.2134 27.7662 14.1013 28.0354 14.0339C28.3047 13.9669 28.0576 13.6303 28.4394 13.5404C28.8209 13.4508 29.8761 13.0022 30.0553 12.8676C30.2349 12.733 29.8309 12.5537 29.4269 12.3067C29.0228 12.06 28.7087 11.9926 28.3944 12.1946C28.0801 12.3966 28.327 11.9704 28.0801 12.0825C27.8333 12.1946 27.1599 11.9029 27.0702 11.7908C26.9805 11.6785 25.7684 12.0375 25.4766 12.0375C25.1847 12.0375 25.499 12.3517 25.7012 12.5085C25.9031 12.6658 25.2074 13.1591 25.3421 13.2714C25.4768 13.3836 25.2074 13.675 24.8931 14.0339C24.5788 14.3932 25.1177 14.3707 25.5215 14.4604ZM36.7432 16.3C36.8781 16.1431 37.4391 16.6139 37.4616 16.2777C37.4841 15.9411 36.8332 15.784 36.5638 15.6047C36.2947 15.4249 36.1825 15.5148 35.7558 15.2007C35.3293 14.8868 35.868 14.7297 35.5537 14.4829C35.2396 14.2362 35.1274 13.5632 35.3515 13.3392C35.5759 13.1145 35.823 12.7783 35.419 12.6212C35.015 12.4644 34.3641 12.756 34.4315 12.8455C34.4987 12.9354 35.0597 13.2493 35.0597 13.3841C35.0597 13.5185 34.5435 13.0028 34.3639 13.1147C34.1844 13.227 33.9825 12.8906 33.8252 13.1147C33.6682 13.3394 34.0273 14.1243 34.1617 14.3483C34.2966 14.5728 34.0273 14.5728 33.8476 14.6175C33.6682 14.6627 33.6457 13.9895 33.4661 13.743C33.2865 13.4962 32.5683 13.2043 32.5234 13.3841C32.4784 13.5634 32.9721 13.5634 32.9049 13.8102C32.8377 14.0571 32.5683 13.6531 32.3213 13.8551C32.0744 14.0571 32.1194 13.9225 32.1641 13.7205C32.2091 13.5185 31.805 13.2944 31.3563 13.3392C30.9073 13.3841 31.1542 13.698 31.0197 13.8102C30.885 13.9225 30.2116 13.743 30.6379 13.6531C31.0644 13.5632 30.885 13.3167 30.7279 13.07C30.5707 12.8232 30.1444 13.1147 29.4486 13.3614C28.7529 13.6084 28.4386 13.8773 28.5283 13.8998C28.6183 13.9223 28.6405 14.0342 28.3712 14.2587C28.1018 14.4829 28.3712 14.685 28.6183 14.685C28.8651 14.685 28.6477 14.8826 28.8202 14.9317C28.9773 14.9766 29.7854 14.6175 30.0097 14.7746C30.2343 14.9317 28.6857 15.0214 28.6857 15.2906C28.6857 15.5598 29.5385 15.7168 30.1671 15.6047C30.7955 15.4924 31.8952 15.6944 31.8952 15.8514C31.8952 16.0085 31.1546 15.9636 30.5936 15.9411C30.0327 15.9188 29.0675 16.0982 29.1122 16.2777C29.1624 16.4784 29.2244 16.4797 29.8078 16.7485C30.3915 17.0179 30.9972 16.6137 30.9749 16.9954C30.9525 17.377 31.2893 17.4667 32.0746 17.4889C32.8602 17.5114 33.2192 17.1303 33.601 17.1527C33.9825 17.175 34.162 17.1078 34.3416 16.8388C34.521 16.5694 34.6784 16.7265 34.7231 16.8611C34.7681 16.9957 35.2618 16.973 35.374 17.0851C35.6602 17.3714 36.6084 17.2873 36.9674 17.1076C37.3265 16.9282 36.8103 16.4346 36.6306 16.6588C36.4512 16.8833 36.2943 16.7485 36.2493 16.6366C36.2048 16.5242 36.6088 16.4573 36.7432 16.3ZM28.2147 10.7816C28.6189 10.8265 29.0227 10.4676 29.0002 10.2656C28.978 10.064 28.0143 10.7595 28.2147 10.7816ZM26.352 10.1541C26.5092 10.2215 26.352 10.5354 26.5314 10.4457C26.7111 10.3559 26.756 10.3336 26.8907 10.3783C27.1333 10.4594 27.1823 10.2437 27.2947 10.1316C27.4069 10.0193 27.3622 10.5352 27.6538 10.5352C27.9007 10.5352 27.8559 9.99678 28.0803 10.1539C28.3049 10.3109 28.3721 10.0867 28.4171 9.92959C28.4621 9.77252 28.4621 9.50353 28.7089 9.45859C28.9558 9.41365 28.7539 9.70532 28.8661 9.90733C29.0293 10.2014 29.3149 9.9298 29.3376 9.79499C29.36 9.6606 29.7641 9.75026 29.7414 9.59319C29.7189 9.43612 29.8538 9.39118 29.7414 9.21164C29.6294 9.03231 29.9212 9.07704 30.0557 8.94244C30.1906 8.80783 29.8763 8.91997 29.6517 8.71817C29.4273 8.51616 29.3376 8.78536 29.3376 8.91997C29.3376 9.05457 28.9108 8.94244 28.6642 8.85256C28.4173 8.7629 28.103 9.14423 27.7439 9.32377C27.3849 9.50331 27.3626 9.81724 27.0258 9.79477C26.6886 9.77273 26.1951 10.0869 26.352 10.1541ZM29.8532 10.0418C29.5391 10.0643 29.5613 10.3785 29.9208 10.3785C30.2797 10.3785 30.3921 10.4906 29.8759 10.4681C29.3596 10.4457 29.135 10.8944 29.4941 10.8047C29.8532 10.7149 30.2797 10.7149 30.0103 10.8047C29.7407 10.8944 29.0073 10.9562 29.1126 11.0962C29.18 11.1859 29.4716 11.1636 29.7634 11.2757C30.0551 11.3881 30.2347 11.4551 30.4593 11.2083C30.6835 10.9616 30.9755 10.7151 30.8633 11.0515C30.7509 11.3881 31.2224 11.1413 31.8283 11.1187C32.4345 11.0962 31.7161 11.4777 31.0877 11.5225C30.4593 11.5674 30.5715 11.8813 31.0652 11.9935C31.559 12.1056 32.6141 11.6793 32.8607 11.4326C33.1076 11.1859 33.332 11.5672 33.5789 11.3879C33.8259 11.2081 34.2974 11.4103 34.7237 11.3205C35.1502 11.2308 35.2174 10.4232 34.9033 10.2886C34.5892 10.154 34.5892 10.4457 34.3424 10.4906C34.0955 10.5355 33.9606 10.2214 33.7589 10.0196C33.5568 9.81758 33.6913 9.43625 33.3997 9.48119C33.1102 9.52569 32.4794 9.99712 32.861 10.0418C33.2425 10.0868 33.1078 10.2888 32.9059 10.3785C32.704 10.4681 33.3774 10.625 33.2875 10.7598C33.1978 10.8946 32.1653 10.7823 32.1206 10.558C32.0756 10.3335 31.2678 9.92971 30.9312 10.0196C30.5944 10.1093 30.7291 9.75039 30.3925 9.72792C30.0553 9.70545 30.1675 10.0196 29.8532 10.0418ZM31.0205 8.42688C31.1327 8.15768 30.2771 8.20219 30.3474 8.29228C30.5045 8.49429 30.9081 8.69609 31.0205 8.42688ZM32.8829 8.31449C33.1747 8.26955 33.0401 8.04507 32.5686 8.1127C32.0974 8.17989 31.2893 8.17946 31.2893 8.5165C31.2893 8.78571 31.4465 8.92031 31.9625 8.96525C32.4787 9.00997 32.9277 8.5165 32.6808 8.5165C32.4339 8.5165 32.5911 8.35943 32.8829 8.31449ZM31.7832 7.88864C32.0078 7.97852 32.2322 7.68684 32.3891 7.82145C32.5463 7.95605 33.2419 8.06818 33.2419 7.7091C33.2419 7.35023 32.3667 7.30529 32.1423 7.43989C31.9177 7.5745 30.8855 7.61944 31.1773 7.8437C31.3563 7.98176 31.5588 7.79919 31.7832 7.88864ZM35.5315 7.19309C35.8009 7.01355 36.2948 7.30522 36.2049 7.50702C36.115 7.70903 35.3383 7.4664 35.3968 7.64184C35.4193 7.70903 35.5092 7.97845 36.0477 7.82138C36.5864 7.66431 37.0354 7.77644 37.3943 8.06811C37.7535 8.35978 38.0901 8.47192 38.337 8.18024C38.5838 7.88857 38.0227 7.84385 38.1349 7.61958C38.2473 7.39532 37.7758 7.2605 37.5289 7.2605C37.2821 7.2605 37.1924 6.81197 36.9902 6.90163C36.7883 6.99151 36.6537 7.14837 36.6537 6.85669C36.6537 6.56524 35.4865 6.54255 35.1947 6.6549C34.9031 6.76682 35.2622 7.37242 35.5315 7.19309ZM35.6885 9.07719C35.8682 8.85271 34.9704 8.13519 34.9254 8.47159C34.8805 8.8082 35.4976 9.31571 35.6885 9.07719ZM38.606 6.13917C38.7632 5.86954 37.6596 5.65845 37.9329 5.89222C38.0898 6.02704 38.4489 6.40816 38.606 6.13917ZM36.07 11.2306C36.2272 11.0511 35.7335 10.6698 35.5988 10.9837C35.4639 11.2978 35.9101 11.4132 36.07 11.2306ZM38.6063 9.66002C38.5839 9.88428 38.0676 9.61508 37.6636 9.45801C37.2596 9.30115 37.5067 9.77215 37.821 10.0411C38.1351 10.3103 37.6636 10.176 37.2373 9.88428C36.8108 9.59261 36.8556 10.0863 37.0577 10.2431C37.2598 10.4002 37.0129 10.6243 36.7434 10.2654C36.474 9.90675 36.3396 9.5252 35.9131 9.50295C35.4868 9.48048 35.6809 9.91712 35.8458 10.131C36.0702 10.4225 36.2948 10.4899 36.6539 10.6917C37.0132 10.8937 37.5966 10.6018 37.8657 10.6692C38.1349 10.7366 37.5737 11.073 37.7535 11.2973C37.9332 11.5215 38.4269 11.3645 38.8082 11.342C39.19 11.3195 39.0104 11.0953 39.2347 10.9382C39.4593 10.7811 39.0104 10.8038 39.19 10.4223C39.3694 10.0411 38.6286 9.43554 38.6063 9.66002ZM39.5488 8.33722C39.8856 8.33722 40.1547 8.29228 40.4465 8.18015C40.7384 8.06802 40.2894 8.06802 40.4913 7.79903C40.6934 7.52983 39.9975 7.50714 39.9526 7.59702C39.9076 7.6869 39.0326 7.05861 38.8977 7.26041C38.7634 7.4622 39.2122 8.33722 39.5488 8.33722ZM41.3669 8.44946C41.322 8.31486 39.6205 8.5199 39.8857 8.71888C40.3345 9.05528 41.4121 8.58406 41.3669 8.44946ZM41.1201 11.7236C41.5241 11.7011 41.322 11.2075 40.8732 10.8711C40.4242 10.5347 39.4158 11.2262 39.5942 11.3645C39.7956 11.5216 40.7159 11.7459 41.1201 11.7236ZM38.2472 14.8645C38.7409 15.2009 38.5838 14.5953 39.145 14.6176C39.7062 14.6403 39.7284 13.7205 39.8183 13.3841C39.9081 13.0475 39.3694 13.07 39.5042 13.3167C39.6387 13.5635 39.4818 13.8102 39.4366 13.5185C39.3916 13.2271 38.9653 13.4963 38.8082 13.272C38.651 13.0475 39.3019 13.0253 39.4593 12.7336C39.6164 12.4421 38.9429 12.4869 39.1002 12.2624C39.2574 12.0381 38.1125 12.2848 38.4491 12.4194C38.7859 12.5543 38.4716 12.7336 38.1573 12.5091C37.8432 12.2848 36.9729 12.6601 37.282 12.9131C37.5289 13.1147 38.2695 12.7783 37.8432 13.3617C37.4167 13.945 37.237 13.2046 36.8332 13.272C36.4292 13.3394 36.6089 13.8327 37.2148 14.0122C37.8207 14.1915 37.7535 14.5281 38.2472 14.8645ZM41.9054 11.2752C42.0626 11.7239 42.2424 11.4098 42.4891 11.5891C42.736 11.7687 43.1175 11.8808 43.3196 11.7013C43.5215 11.5219 43.6114 11.3873 43.6787 11.5442C43.7883 11.7993 44.2848 11.8359 45.362 11.8583C46.4392 11.8808 46.17 11.4098 46.4841 11.5891C46.7982 11.7687 47.5168 11.7687 47.8307 11.7013C48.145 11.6341 48.3019 11.1406 48.2794 10.8939C48.257 10.6469 45.8555 10.4451 45.429 10.6919C45.0025 10.9386 44.3291 10.5795 43.9926 10.759C43.6558 10.9386 43.7682 10.5348 43.162 10.5121C42.5561 10.4898 43.207 10.1757 43.3192 10.0411C43.4316 9.90671 42.3989 9.54784 41.9727 9.63751C41.5464 9.72717 41.2993 9.5029 40.8953 9.32336C40.4912 9.14382 39.3946 9.1866 39.6162 9.5029C39.7733 9.72717 41.0749 10.1982 41.2096 9.97412C41.3442 9.74964 41.681 10.2431 41.8829 10.4898C42.0851 10.7368 41.7483 10.8265 41.9054 11.2752ZM43.0501 8.6289C42.6461 8.42689 42.1394 8.85403 42.5564 9.01024C42.9157 9.14462 43.4542 8.8307 43.0501 8.6289ZM39.8183 6.11592C40.1493 6.28163 39.953 6.49747 40.3121 6.65432C40.6714 6.81139 41.7038 6.45231 41.7935 6.69926C41.8832 6.946 40.7386 6.96847 40.8957 7.12554C41.0529 7.28261 41.7038 7.52934 41.6139 7.66394C41.5242 7.79855 42.691 8.17966 42.8032 8.00034C42.9156 7.8208 43.2297 7.86552 43.5214 7.97787C43.8132 8.09 43.8357 7.28239 44.0378 7.41699C44.2399 7.55181 44.2172 7.12532 44.554 6.99072C44.8906 6.85612 45.3757 6.8546 45.407 6.69905C45.4295 6.58691 45.3171 6.42963 44.9131 6.47478C44.5093 6.5195 44.2401 6.36243 44.4195 6.13838C44.5992 5.9139 43.9706 5.8465 44.1949 5.66717C44.4195 5.48763 43.7687 5.3083 43.8357 5.57729C43.9031 5.8465 43.4319 5.59976 43.3644 5.35303C43.2972 5.10629 42.3769 5.01642 41.771 4.47822C41.1651 3.93982 40.5367 4.29868 40.8957 4.36588C41.255 4.43328 41.2323 4.61283 40.9407 4.59036C40.6489 4.56789 40.1327 4.61283 40.6041 4.79215C41.0752 4.97169 40.5592 5.03888 40.1776 5.03888C39.7959 5.03888 39.7736 5.53257 40.2673 5.59976C40.7613 5.66717 40.402 5.95863 39.998 5.8465C39.594 5.73458 39.4593 5.93659 39.8183 6.11592ZM42.5336 3.89543C42.848 3.69342 43.0948 3.82823 42.8257 3.96284C42.5561 4.09722 42.6458 4.1871 43.0276 4.16463C43.4091 4.14238 42.8704 4.27698 42.8704 4.50124C42.8704 4.72572 43.3192 4.59112 43.3417 4.81539C43.364 5.03965 44.3289 5.12953 44.621 4.86033C44.9126 4.59112 44.8004 4.92752 44.7781 5.10706C44.7557 5.28638 46.1472 5.44346 46.2146 5.21941C46.282 4.99493 46.484 5.08481 46.7533 5.152C47.0227 5.21941 48.3469 4.90526 48.3692 4.63606C48.3917 4.36686 48.7957 4.77066 48.3692 5.06234C47.9427 5.35401 47.0899 5.30929 46.7083 5.42142C46.3268 5.53355 46.9552 5.80275 47.3367 6.09443C47.7183 6.3861 46.843 6.22903 46.484 5.84748C46.1249 5.46636 45.3168 5.46636 44.8903 5.48861C44.4641 5.51108 44.5987 6.29622 44.9128 6.29622C45.2271 6.29622 45.5414 6.40835 45.8555 6.90161C46.1699 7.39529 46.8432 7.28294 46.8432 7.50721C46.8432 7.73147 45.9677 7.32788 45.474 7.238C44.9805 7.14812 44.1949 7.46227 44.1724 7.82135C44.15 8.18021 44.8906 8.13549 45.3843 7.84382C45.8782 7.55236 45.5192 7.9337 45.2721 8.15796C45.025 8.38244 45.8555 8.56177 45.8555 8.83097C45.8555 9.10017 45.2496 9.01029 45.1822 8.76356C45.1147 8.51683 44.8903 8.27009 44.3069 8.31482C43.7232 8.35976 43.8804 8.76356 44.2397 8.8085C44.5987 8.85322 44.6212 9.12243 44.217 9.12243C43.8129 9.12243 42.9016 9.37586 43.1848 9.63858C43.4988 9.93025 44.6435 9.63858 44.8456 9.81812C45.0475 9.99766 45.6087 10.0649 45.7431 9.86306C45.878 9.66105 46.3268 9.75093 46.7756 9.75093C47.2243 9.75093 47.3367 9.81812 47.5387 9.99766C47.7406 10.1772 48.0998 10.1098 48.3467 9.93025C48.5936 9.75093 48.5936 9.75093 48.9077 9.75093C49.2218 9.75093 49.2892 9.54892 49.1323 9.3024C48.9751 9.05545 48.5711 9.48173 48.5261 9.3024C48.4706 9.0803 48.0998 9.01051 47.4712 9.10017C46.843 9.19005 47.1121 8.69637 47.4937 8.80872C47.8752 8.92085 48.3914 8.87613 48.818 8.76378C49.2445 8.65164 48.9077 8.44963 48.9077 8.27031C48.9077 8.09077 49.4464 8.2029 49.8504 8.2029C50.2542 8.2029 50.8379 7.55258 50.8603 7.17124C50.8828 6.78969 49.9626 6.87957 49.5138 6.87957C49.0648 6.87957 49.8054 6.54274 50.6584 6.58789C51.5114 6.63283 51.1297 6.2515 51.2868 6.11668C51.444 5.98208 51.848 6.27375 52.2743 6.18409C52.7008 6.09421 52.409 5.73534 52.7008 5.73534C52.9077 5.73534 53.3742 5.42142 54.2944 4.90548C55.2144 4.38976 55.9328 4.47921 55.9775 4.18775C56.0225 3.89608 54.6982 4.18775 54.4736 4.09787C54.2492 4.00821 55.3939 3.76147 55.6634 3.82888C55.9326 3.89608 56.2918 3.82888 57.2121 3.37992C58.1323 2.93139 57.7283 2.81926 57.347 2.88667C56.9652 2.95386 56.5387 2.81904 56.5614 2.57253C56.5837 2.32558 56 2.55006 55.9775 2.41546C55.955 2.28064 55.4164 2.34805 54.8329 2.57253C54.2492 2.79679 54.7879 2.34805 55.035 2.25838C55.2819 2.16872 53.5536 2.25838 53.262 2.05659C52.9702 1.85458 52.6334 2.39299 52.3642 2.12378C52.0949 1.85458 51.3992 2.07906 51.489 2.28085C51.5789 2.48286 51.3768 2.48286 51.1074 2.25838C50.8381 2.03412 50.3219 2.28085 49.8506 2.21344C49.3793 2.14604 49.581 2.59478 49.065 2.37052C48.549 2.14604 47.9881 2.25817 48.145 2.32558C48.3022 2.39299 48.1 2.52759 47.8757 2.46039C47.6511 2.39299 47.4492 2.48286 47.5613 2.70691C47.6738 2.93139 46.7308 2.63972 46.7308 2.88667C46.7308 3.13319 46.3942 3.26779 46.1249 3.04352C45.8555 2.81904 45.0028 2.75185 45.2496 2.95365C45.4965 3.15566 44.4863 3.04353 44.7557 3.24532C45.025 3.44711 44.4191 3.60419 44.4191 3.49205C44.4191 3.37992 43.8579 3.17791 43.6335 3.37971C43.4091 3.58172 43.3419 3.82867 43.2295 3.69385C43.1173 3.55946 42.6236 3.60419 42.1521 3.78351C41.6809 3.96284 42.2193 4.09701 42.5336 3.89543ZM48.1897 23.2539C48.3469 23.2319 48.6612 22.6708 48.2571 22.693C47.8531 22.7157 47.9454 23.2889 48.1897 23.2539ZM46.2149 22.7603C46.5739 22.9848 47.1126 22.3788 47.0677 22.1995C47.0229 22.0201 45.781 22.4896 46.2149 22.7603ZM47.8309 21.5271C47.8759 21.3028 47.0903 21.2128 47.1351 20.9665C47.1801 20.7193 46.3945 20.5177 46.1476 20.3831C45.9008 20.2483 45.5192 20.1811 45.5192 19.9121C45.5192 19.6431 44.9805 19.8445 44.958 20.2483C44.9356 20.6525 44.7112 20.5624 44.8234 20.9436C44.9356 21.3251 44.3294 21.415 44.3969 21.617C44.4643 21.8188 44.7559 21.5943 45.0253 21.5943C45.2948 21.5943 44.9524 21.9698 45.2948 21.9979C45.5642 22.0206 46.0354 21.7067 46.1476 21.5271C46.2598 21.3474 46.4844 21.2802 46.7985 21.5044C47.1126 21.7289 47.786 21.7516 47.8309 21.5271ZM55.1697 19.553C55.4391 19.5755 55.484 19.9123 55.9103 20.271C56.3366 20.6296 56.3816 20.3833 56.4488 20.1366C56.5163 19.8894 56.9873 20.0914 56.965 19.8447C56.9426 19.598 57.3468 19.3065 57.6159 19.1944C57.8853 19.082 57.3915 18.8128 57.0325 18.8351C56.6732 18.8578 56.606 18.6108 56.606 18.4537C56.606 18.2969 55.9326 17.9155 55.7082 17.9829C55.4838 18.0501 55.1023 17.6913 54.8105 17.6688C54.5186 17.6466 54.0921 17.4221 54.1371 17.1079C54.182 16.794 54.7205 17.1978 54.8327 16.9509C54.9449 16.7043 54.2715 16.8389 54.2491 16.6592C54.2266 16.4799 54.4064 16.5471 54.5409 16.4349C54.6756 16.3228 54.4287 16.0983 54.2715 16.0089C54.1144 15.9192 54.0694 16.1882 53.9123 16.1882C53.7553 16.1882 53.8898 15.9415 54.0022 15.7844C54.1144 15.6275 53.486 15.448 53.2166 15.5376C52.9473 15.6275 52.8574 15.4705 52.8574 15.2909C52.8574 15.1114 52.3861 15.2909 52.2065 15.4255C52.0268 15.5603 51.8024 15.2909 52.0268 15.2684C52.2512 15.246 52.5206 15.0666 52.4533 14.8646C52.3859 14.6628 51.8024 14.6404 51.6902 14.8871C51.5781 15.1341 51.1068 14.6177 51.1068 14.4161C51.1068 14.2141 50.3885 14.3936 50.4784 14.0572C50.5683 13.7206 49.6481 13.631 49.4012 13.631C49.1541 13.631 48.7953 13.8328 48.84 14.0572C48.8848 14.2815 48.5707 14.1916 48.5257 13.9451C48.4808 13.6984 47.8748 14.2143 47.6954 14.2143C47.516 14.2143 47.8076 13.5638 47.7179 13.3618C47.6282 13.16 47.4935 13.0926 47.3588 12.7564C47.2242 12.4198 46.5508 12.5544 46.3714 12.7564C46.1919 12.9582 45.6083 12.8685 45.2942 13.1824C44.9799 13.4966 45.3164 13.8105 45.4513 13.9226C45.586 14.0346 44.9801 14.2143 45.182 14.3936C45.3839 14.573 45.6982 14.4833 45.7207 14.775C45.7432 15.0666 44.9801 14.6851 44.8679 14.4384C44.7557 14.1914 44.9126 13.9674 44.7557 13.7878C44.5985 13.6085 44.7332 13.3842 45.025 13.0701C45.3169 12.7562 45.5413 12.8009 45.5413 12.6213C45.5413 12.442 44.2844 12.442 43.5438 13.1148C42.803 13.7878 43.0276 14.6853 43.0726 14.8646C43.1176 15.044 43.7684 14.9543 44.1498 15.0666C44.5315 15.1788 44.3294 15.3359 44.0376 15.2909C43.7457 15.246 43.252 15.1563 43.2745 15.3583C43.297 15.5603 43.9029 15.9415 44.2622 15.8518C44.6212 15.7621 44.6212 15.7621 44.7784 15.9639C44.9356 16.1659 45.3618 16.0985 45.7883 16.1212C46.2149 16.1435 46.7086 16.3003 46.9105 16.3228C47.1124 16.3453 47.3593 16.2107 47.4267 16.0983C47.4939 15.9862 48.3245 16.2781 48.5711 16.2554C48.8182 16.2331 48.661 16.0089 48.5039 15.9415C48.3467 15.874 48.414 15.5826 48.6161 15.6947C48.8182 15.8068 49.1546 15.874 49.222 16.0761C49.2793 16.2476 49.4687 16.1657 49.4916 16.3228C49.5141 16.4801 50.232 16.6592 50.2544 16.8389C50.2769 17.0183 49.5588 17.1079 49.7609 17.265C49.9628 17.4221 50.2769 17.0628 50.5465 17.0407C50.8158 17.0183 50.8158 17.6236 51.0177 17.5344C51.2929 17.4119 51.5117 17.6466 51.7806 18.0277C52.05 18.4092 51.7583 18.7681 51.7806 18.9025C51.8031 19.0371 52.3193 18.9921 52.6111 18.8351C52.903 18.678 53.1723 19.0146 53.3965 19.2164C53.6211 19.4186 52.566 19.7548 52.6559 19.5755C52.7456 19.3959 52.0275 18.858 51.3766 19.1043C50.7257 19.3512 51.1745 19.7328 51.2421 19.957C51.3091 20.1813 50.6585 20.4053 50.0523 20.2038C49.4464 20.0015 49.6258 20.3379 49.3792 20.3379C49.1323 20.3379 48.8629 20.7193 49.0873 20.9664C49.3115 21.2127 49.8055 20.9889 50.2095 21.0112C50.6135 21.0336 50.6585 21.1458 50.7032 20.9215C50.7482 20.697 51.1745 20.8092 51.4661 20.8766C51.7581 20.9435 51.6907 21.3473 52.0495 21.3925C52.4088 21.437 52.1172 21.7963 52.3416 22.0433C52.5657 22.2898 53.2841 22.1552 53.5532 22.4246C53.8226 22.6934 54.9644 23.23 55.1246 23.03C55.304 22.8059 54.1371 21.7736 53.8003 21.6842C53.4637 21.5945 54.1371 21.4826 54.5634 21.819C54.9899 22.1554 55.6181 22.3127 55.9324 21.9087C56.2467 21.5048 55.6633 21.6172 55.6633 21.3255C55.6633 21.0338 55.4609 20.63 55.1468 20.63C54.8327 20.63 54.0249 20.002 54.3165 19.8678C54.6083 19.733 54.2266 19.5532 54.4514 19.3067C54.676 19.0595 54.9002 19.5305 55.1697 19.553ZM50.4341 18.4757C50.7035 18.4308 50.6535 18.0158 50.5014 17.8027C50.3889 17.6456 50.0973 17.623 49.8505 17.6456C49.6036 17.6679 49.1773 18.0492 49.4015 18.4306C49.6261 18.8121 50.1648 18.5205 50.4341 18.4757ZM47.6285 12.6437C47.4939 12.9352 47.9204 12.9352 47.9426 13.2718C47.9651 13.6082 48.3916 13.7203 48.7059 13.5183C49.02 13.3165 49.9178 13.5784 49.9178 13.3165C49.9178 13.0698 48.9751 12.6211 48.6385 12.6883C48.3019 12.7559 47.7632 12.3521 47.6285 12.6437ZM56.0452 31.7329C56.0901 31.9129 57.3919 32.4509 57.4367 32.2046C57.4814 31.9576 56.0065 31.5791 56.0452 31.7329ZM61.7385 33.0716C61.649 33.2363 61.5143 32.9519 61.7088 32.8024C61.9032 32.6531 61.6786 32.5935 61.4992 32.6832C61.3195 32.7722 61.3643 32.2791 61.5292 32.1895C61.6939 32.0996 61.1252 31.9201 61.1252 32.0845C61.1252 32.2498 60.7209 32.1443 60.6762 31.9948C60.6315 31.8455 60.3474 31.801 60.4518 31.696C60.5564 31.5916 60.1077 31.5314 60.0627 31.7107C60.018 31.89 59.8833 31.5912 60.1077 31.3518C60.3323 31.1124 60.2573 30.9037 60.4667 30.7834C60.6762 30.6637 60.4518 30.5295 60.2274 30.619C60.0026 30.7089 59.4045 31.5314 59.4045 31.7559C59.4045 31.9801 59.3891 32.2495 59.1799 32.234C58.9702 32.2195 58.7309 32.4137 58.8954 32.5334C59.0599 32.6531 58.4609 32.9928 58.7458 33.1468C58.9403 33.2512 59.2547 33.1019 59.524 33.1317C59.7931 33.1617 60.018 33.1764 60.2421 33.0122C60.4665 32.8474 60.4665 33.1613 60.706 33.1317C60.9455 33.1019 60.5714 33.3261 60.5863 33.4903C60.6014 33.6552 60.8407 33.4007 61.0203 33.311C61.1998 33.2216 61.4241 33.311 61.3344 33.4607C61.2447 33.6098 61.8284 33.7598 61.9631 33.5204C62.098 33.2812 61.8286 32.9076 61.7385 33.0716ZM21.1713 28.9499C20.7673 29.1647 21.7384 30.1886 21.9411 30.0602C22.0799 29.9716 21.7012 29.5428 21.7012 29.2783C21.7012 29.0132 21.5751 28.7356 21.1713 28.9499ZM58.1548 34.0663C57.9977 34.089 58.1213 33.8421 58.1434 33.7189C58.1661 33.5955 57.8068 33.7749 57.796 33.9207C57.7848 34.0665 57.5379 34.1227 57.5379 34.2124C57.5379 34.4742 57.5039 34.3357 57.3245 34.4254C57.1449 34.5149 56.449 34.4254 56.427 34.2681C56.4045 34.1113 55.8993 34.0331 55.877 33.8194C55.8546 33.6068 55.6075 33.5394 55.8094 33.3039C56.0117 33.0679 55.7759 32.9558 55.5852 33.1353C55.3943 33.3149 55.2821 33.0347 55.5402 32.9338C55.7986 32.8327 56.2811 32.7318 56.0342 32.283C55.7873 31.8349 54.2387 32.4176 53.8459 32.6417C53.4531 32.8661 52.9592 33.5841 52.746 33.5841C52.5329 33.5841 53.1163 33.2025 53.206 33.0569C53.296 32.9109 53.1836 32.765 53.307 32.8214C53.4306 32.8774 53.7782 32.3392 54.0141 32.1594C54.2495 31.9803 54.5078 32.1488 54.5413 32.0026C54.5753 31.8567 54.6872 31.7558 54.9116 31.554C55.136 31.3518 57.818 31.3857 58.0761 31.3968C58.3343 31.408 58.8394 31.0604 58.9851 30.8359C59.1313 30.6116 59.3219 30.6116 59.681 30.6341C60.0401 30.6563 60.2085 30.3316 60.3879 30.2078C60.5673 30.0844 60.5001 30.0283 60.3431 29.995C60.1858 29.9611 60.0401 29.8602 60.197 29.8489C60.3544 29.8379 60.4326 29.7478 60.4999 29.5463C60.5671 29.344 60.4439 29.4339 60.2305 29.1535C60.0176 28.8735 59.9052 29.2436 59.692 29.2209C59.4787 29.1986 59.8377 28.9296 59.6581 28.8173C59.4787 28.7049 59.1419 28.7838 58.8725 29.0081C58.6034 29.2323 58.6257 28.9966 58.39 29.2209C58.1544 29.4451 58.1544 29.109 58.2668 29.0193C58.3792 28.9296 58.4577 29.0303 58.5586 28.8959C58.6598 28.7611 58.7608 28.8959 59.0187 28.7274C59.2768 28.5597 59.5011 28.638 59.5798 28.5146C59.6581 28.3912 59.456 28.2229 59.2093 28.2791C58.9624 28.3355 58.7943 27.9425 58.6371 28.0546C58.4797 28.167 58.5137 27.8865 58.334 27.9987C58.1544 28.1108 58.0537 27.9652 57.975 27.7515C57.8963 27.5389 57.4138 27.1908 57.1222 27.1012C56.8304 27.0111 57.0212 26.8544 57.1782 26.9663C57.3355 27.0787 57.515 26.8542 57.5824 26.7419C57.6496 26.6295 57.4702 26.5291 57.3803 26.5178C57.2906 26.5062 57.2906 26.3601 57.3128 26.2482C57.3355 26.1358 56.9988 25.9898 56.9873 25.8781C56.9761 25.7655 56.7854 25.6873 56.7968 25.5862C56.8081 25.4853 56.6062 25.3397 56.6062 25.2053C56.6062 25.0705 56.2694 24.8013 56.2582 24.6444C56.2471 24.4871 56.0675 24.3752 56 24.1844C55.9326 23.9937 55.8429 24.0835 55.7754 24.3523C55.7082 24.6217 55.4726 24.6107 55.5398 24.7002C55.6779 24.8847 55.5735 24.8907 55.4726 25.0031C55.3716 25.1154 55.5398 25.2835 55.3716 25.2835C55.2032 25.2835 55.2817 25.6311 55.192 25.4743C55.1023 25.3172 54.8891 25.3617 54.8891 25.519C54.8891 25.6759 54.5301 25.8217 54.3842 25.8107C54.2382 25.7992 54.2383 25.4965 54.1148 25.586C53.9914 25.6756 54.0139 25.3282 53.823 25.3395C53.6323 25.3505 53.4976 25.3282 53.5536 25.1599C53.6098 24.9918 53.2281 24.9134 53.3517 24.8123C53.4749 24.7114 53.318 24.5323 53.2955 24.2406C53.273 23.9489 53.4639 23.9267 53.4639 23.8146C53.4639 23.7026 53.329 23.7026 53.1946 23.7923C53.0599 23.8815 53.0599 23.6687 52.914 23.6797C52.7683 23.6908 52.3305 23.6687 52.3081 23.4665C52.2856 23.2647 52.1397 23.3658 52.0724 23.175C52.005 22.9847 51.8256 23.1301 51.8256 22.9957C51.8256 22.8609 51.7469 22.8049 51.6122 22.7935C51.4775 22.7822 51.4328 22.6368 51.2531 22.6142C51.0737 22.5917 50.8491 22.7377 50.7482 22.7822C50.6472 22.8272 50.3889 22.6254 50.2882 22.7038C50.1872 22.7822 50.1647 22.6479 49.8841 22.5692C49.6035 22.4906 49.233 22.4681 49.2108 22.5692C49.1883 22.6701 48.9637 22.7038 48.9974 22.9391C49.0311 23.1746 49.267 23.1297 49.323 23.2869C49.3792 23.4438 49.2108 23.3878 49.1995 23.5337C49.1883 23.6795 49.0424 23.6685 49.0424 23.7692C49.0424 23.8705 49.1435 23.8478 49.1995 24.0498C49.2557 24.2514 49.3679 24.2404 49.4016 24.5094C49.4354 24.7786 49.3117 24.7224 49.1995 24.7563C49.0873 24.7898 49.2108 24.9242 49.0536 25.1037C48.8965 25.2835 48.7618 25.4741 48.8852 25.586C49.0089 25.6985 49.4687 25.8889 49.6485 26.192C49.8281 26.4949 49.8169 26.9661 49.7609 27.3027C49.7047 27.6394 49.3232 27.7176 49.0426 28.0092C48.7622 28.3011 48.4704 28.2562 48.3357 28.2672C48.201 28.2787 48.2795 28.5479 48.4704 28.7607C48.6613 28.9739 48.5043 29.0409 48.6053 29.2654C48.7062 29.4896 48.6053 29.669 48.751 29.871C48.8969 30.0732 48.807 30.1516 48.6388 30.2975C48.4704 30.4435 48.7062 30.3651 48.7172 30.5554C48.7285 30.7462 48.6388 30.6339 48.4929 30.533C48.3472 30.4321 48.2123 30.7233 48.2123 30.8469C48.2123 30.9703 47.8645 30.6788 47.7858 30.6896C47.7073 30.7011 47.8082 30.4988 47.6061 30.342C47.404 30.1851 47.2468 30.1514 47.2468 29.9948C47.2468 29.8377 46.899 29.7254 46.899 29.546C46.899 29.3665 46.944 28.9067 46.8655 28.7719C46.7871 28.6375 46.8543 28.4917 46.9217 28.3683C46.989 28.2447 46.8433 28.0542 46.6411 28.0542C46.439 28.0542 46.1589 27.9868 45.8781 28.0092C45.5975 28.0317 45.4403 27.9868 45.3506 27.9081C45.2609 27.8299 45.0028 27.6616 44.6547 27.5717C44.3069 27.4821 44.1498 27.3027 44.116 27.2018C44.0823 27.1007 43.7345 27.0223 43.656 26.9212C43.5776 26.8201 43.2408 26.7643 43.1063 26.7866C42.9714 26.8091 42.6348 26.5059 42.4332 26.5176C42.2308 26.5286 41.7598 26.7306 41.6811 26.7417C41.6024 26.7531 41.6923 26.5738 41.7483 26.4949C41.8045 26.4163 41.5799 26.0799 41.5239 25.8554C41.4677 25.6311 41.3893 25.3844 41.1536 25.4179C40.918 25.4514 40.6599 25.3282 40.5927 25.2835C40.5252 25.2383 40.5142 24.5993 40.5702 24.3303C40.6262 24.0609 40.918 23.6568 40.918 23.489C40.918 23.3209 41.1089 23.242 41.2773 23.1975C41.4455 23.1526 41.3108 22.8272 41.4792 22.8049C41.6476 22.7822 41.6586 22.7151 41.6926 22.5807C41.7263 22.4456 41.9284 22.5357 41.816 22.4236C41.7038 22.3115 41.7935 22.2775 42.0516 22.2775C42.3097 22.2775 42.6913 22.1877 42.6353 21.9299C42.5791 21.6724 41.9057 21.8627 41.9057 21.6495C41.9057 21.4362 41.0529 21.4252 41.1089 21.3021C41.1651 21.1787 41.9619 21.3917 42.2535 21.5036C42.5453 21.6162 42.624 21.6047 42.8594 21.5935C43.0953 21.5823 42.9381 21.2796 42.9829 21.1562C43.0278 21.0329 43.4766 21.3466 43.7347 21.2796C43.9928 21.212 44.2399 20.685 44.4531 20.5396C44.6664 20.3935 44.4755 20.2589 44.0603 20.2927C43.6452 20.3261 43.4096 20.1693 43.1852 20.0008C42.9606 19.8327 42.9831 19.6981 43.2187 19.7205C43.4543 19.7426 44.0155 20.203 44.2287 20.2138C44.4418 20.2252 44.8121 19.799 44.9915 19.6641C45.1714 19.5295 44.8236 19.4734 44.6999 19.3727C44.5765 19.2718 44.9129 19.2044 45.0927 19.2044C45.2721 19.2044 45.3506 19.3615 45.418 19.4397C45.4853 19.5183 45.7996 19.3839 45.9567 19.3839C46.1139 19.3839 45.9343 19.1257 45.6762 19.0248C45.4183 18.9239 45.6874 18.7334 45.7661 18.8905C45.8445 19.0475 46.024 19.0136 46.1139 19.1934C46.2445 19.4548 46.327 19.2828 46.5514 19.2044C46.776 19.126 46.8882 18.9911 47.0117 18.857C47.1351 18.7224 47.1576 18.879 47.3033 18.6662C47.4492 18.4527 47.236 18.2512 47.0564 18.1163C46.8768 17.982 47.0676 17.8473 46.888 17.7579C46.7086 17.6678 46.6749 17.4995 46.8992 17.5444C47.1236 17.5894 47.3033 17.522 47.4042 17.3651C47.5052 17.208 47.0674 17.1743 47.2695 17.062C47.4715 16.9499 47.3031 16.8382 47.1012 16.8382C46.899 16.8382 46.7306 16.7373 46.7194 16.5687C46.7084 16.4004 46.3603 16.5128 46.1472 16.4115C45.934 16.3108 45.4626 16.333 45.3504 16.3443C45.238 16.3555 45.2269 16.8155 45.3951 16.8267C45.5635 16.8379 45.6982 17.0173 45.5523 17.0737C45.4066 17.1296 45.575 17.3087 45.4626 17.2975C45.3504 17.2867 45.171 17.2303 45.1372 17.5218C45.1035 17.8136 45.081 17.9258 44.8902 18.0267C44.6995 18.128 44.8454 17.7017 44.666 17.7127C44.4861 17.724 44.4639 18.0718 44.5985 18.1051C44.7332 18.1388 44.7557 18.2509 44.7892 18.4192C44.8229 18.5873 44.5423 18.4642 44.4301 18.6662C44.318 18.8678 44.3067 18.5763 44.1496 18.4417C43.9926 18.3069 43.8017 18.0824 43.813 17.9145C43.8229 17.7672 43.9029 17.7127 44.0261 17.6901C44.1496 17.6676 44.0261 17.5555 44.0151 17.3534C44.0039 17.1517 43.8579 17.2188 43.6783 17.0058C43.4989 16.7928 43.308 16.7928 43.207 16.8937C43.1061 16.9946 43.1735 17.1854 43.0164 17.2526C42.859 17.32 42.9265 17.6339 42.7918 17.6561C42.6569 17.6786 42.7356 17.1067 42.6236 17.0508C42.5114 16.9944 42.5224 16.86 42.6908 16.8377C42.8592 16.8153 42.9602 16.6357 42.8143 16.6357C42.6686 16.6357 42.4102 16.4786 42.3093 16.4337C42.2083 16.3888 42.0402 16.6245 41.928 16.5346C41.8156 16.4449 41.939 16.2207 41.9502 16.0973C41.9615 15.9742 42.1299 16.1537 42.2423 15.9964C42.3545 15.8393 41.928 15.8393 41.928 15.671C41.928 15.5027 41.5912 15.458 41.4788 15.4018C41.3666 15.3457 41.5572 15.0654 41.5012 14.9531C41.4453 14.841 41.03 14.4711 40.8506 14.5046C40.6709 14.538 40.626 14.2688 40.7269 14.2801C40.8279 14.2913 40.9066 14.2241 41.0974 14.0109C41.2879 13.7978 41.3104 13.7304 41.1757 13.6857C41.0412 13.6408 40.9738 13.5062 41.2094 13.5174C41.445 13.5289 41.8603 13.6857 41.9948 13.5848C42.1297 13.4839 42.5559 12.8221 42.7243 12.5866C42.8925 12.3511 42.6011 12.3287 42.1971 12.3622C41.7931 12.3959 41.7031 12.2051 41.3666 12.1826C41.03 12.1604 40.4016 12.25 40.3117 12.3509C40.2219 12.4518 40.4801 12.5415 40.4465 12.6536C40.4128 12.7658 40.2109 12.5752 40.1212 12.6199C40.0313 12.6649 40.1547 12.8107 40.1212 13.203C40.0875 13.5956 40.1997 13.6181 40.3119 13.7639C40.4241 13.9098 40.4018 14.1005 40.4018 14.3471C40.4018 14.594 40.1662 14.5828 40.0877 14.6389C40.0092 14.6949 40.2898 14.7846 40.2449 14.9416C40.1999 15.0989 39.9643 14.852 39.8296 14.8967C39.6949 14.9416 39.5827 15.323 39.7286 15.4463C39.8746 15.5699 39.9308 15.5475 39.8186 15.6933C39.7064 15.8391 39.5829 16.0522 39.8523 16.2652C40.1216 16.4784 40.6152 16.456 40.8735 16.6243C41.1316 16.7924 40.7613 16.6915 40.862 16.882C40.9632 17.073 40.6938 17.14 40.7049 17.286C40.7161 17.4314 40.8173 17.3532 40.952 17.1063C41.0866 16.8595 41.1876 17.1737 41.1763 17.3869C41.1653 17.6 40.9744 17.4766 40.8285 17.6896C40.6828 17.9027 40.5479 17.9359 40.3348 17.8914C40.1216 17.8467 40.2451 18.1943 40.3348 18.3851C40.4245 18.5757 40.3123 18.6426 40.0654 18.5757C39.8186 18.5085 39.6727 18.3512 39.7959 18.1608C39.9193 17.9699 40.0092 17.7456 39.8633 17.7681C39.7174 17.7907 39.3808 17.7573 39.2797 17.6C39.1787 17.4427 39.3473 17.5101 39.65 17.5438C39.9528 17.5775 39.6949 17.342 39.9193 17.342C40.1439 17.342 40.3121 17.4654 40.503 17.2971C40.6936 17.1292 40.3795 16.8036 40.2224 16.86C40.0652 16.9162 39.8184 16.9831 39.8184 16.8265C39.8184 16.6692 40.0877 16.7816 40.2334 16.7476C40.3793 16.7141 40.1549 16.5126 39.9305 16.5683C39.7059 16.6245 39.5488 16.6357 39.3694 16.4447C39.1899 16.2539 38.8644 16.142 38.7859 16.5793C38.7072 17.0168 38.3931 16.7813 38.2697 16.9272C38.1463 17.0732 38.4156 17.1739 38.7187 17.1851C39.0215 17.1964 39.2459 17.4768 39.1004 17.4768C38.9545 17.4768 39.0218 17.6898 38.8646 17.6114C38.7074 17.533 38.5503 17.6114 38.6625 17.7458C38.7749 17.8808 38.6177 17.9361 38.6288 18.0714C38.64 18.206 38.3931 18.0822 38.1575 18.0599C37.9219 18.0375 37.4841 18.1159 37.17 18.1833C36.8555 18.2507 36.5079 18.1386 36.3732 17.9925C36.2383 17.8471 36.0589 17.8694 35.8345 17.8694C35.6099 17.8694 35.6774 17.6561 35.3856 17.6451C35.0937 17.6339 35.1609 17.3872 35.1274 17.2413C35.0937 17.0955 34.5103 17.1404 34.2971 17.2748C34.084 17.4096 33.6687 17.3534 33.5563 17.6002C33.4441 17.8471 33.6573 17.8132 33.7809 17.8132C33.9526 17.8132 33.9381 17.6114 34.2524 17.6559C34.5665 17.7011 34.7909 17.3308 34.9255 17.4654C35.0602 17.6 34.3868 17.8575 34.0952 17.9027C33.8034 17.9476 33.8708 18.1829 34.1512 18.5981C34.4318 19.013 34.0278 18.7775 34.0278 18.9795C34.0278 19.1811 33.5001 18.9121 33.7137 18.8447C33.9268 18.7772 33.8257 18.5642 33.6573 18.4298C33.4891 18.2952 33.3769 18.4298 33.3994 18.2842C33.4219 18.1384 33.2197 18.2952 33.0626 18.1721C32.9054 18.0485 32.8267 17.9476 32.6138 18.0597C32.4004 18.1721 32.1536 18.1384 31.6823 18.2168C31.2109 18.2954 30.347 18.2728 30.1899 18.1159C30.0327 17.959 30.5939 17.6786 30.7621 17.7238C30.9253 17.767 30.8295 17.544 30.5714 17.3422C30.3131 17.1404 29.7407 17.0171 29.7521 17.1404C29.7634 17.2638 29.4266 17.1517 29.0115 17.0732C28.5963 16.9944 28.5401 16.8483 28.2707 16.8377C28.0104 16.8265 27.5976 16.7476 27.2832 16.5011C26.9689 16.2539 26.2283 16.3214 26.1386 16.5458C26.0489 16.7703 25.8018 16.7589 25.555 16.7589C25.3081 16.7589 25.6665 16.4817 25.5774 16.4337C25.4592 16.3704 25.5887 16.0636 25.409 16.0414C25.2296 16.0187 25.0612 16.7816 24.7244 16.7589C24.3879 16.7368 24.2419 15.9517 23.9614 15.7497C23.681 15.5479 23.4227 15.5364 23.6583 15.8396C23.8939 16.1425 23.4564 15.9292 23.4789 16.1312C23.5013 16.333 23.0975 16.5687 23.1086 16.4566C23.1198 16.3443 22.884 16.2209 22.6148 16.5348C22.3457 16.8487 22.1546 16.804 22.1323 16.6921C22.1098 16.5798 21.3133 16.9836 21.3468 17.1184C21.3805 17.253 21.2233 17.3539 21.0102 17.3426C20.797 17.3314 20.9652 17.1521 21.1334 17.062C21.3228 16.9615 21.8405 16.5463 22.1098 16.5015C22.3792 16.4566 22.8956 16.2436 22.9067 16.1202C22.9181 15.9966 22.6488 16.0975 22.4691 16.0638C22.2897 16.0301 21.9754 16.2321 21.6723 16.3667C21.3695 16.5015 21.0214 16.4566 21.1114 16.6359C21.2011 16.8155 20.8308 16.6132 20.7521 16.737C20.6736 16.8602 20.5277 16.7256 20.6399 16.6582C20.7521 16.591 20.3705 16.4678 20.3705 16.5461C20.3705 16.6247 20.3031 16.7256 20.0337 16.7256C19.7646 16.7256 19.495 16.9164 19.6747 17.051C19.8543 17.1854 19.9665 17.2528 19.8766 17.3424C19.7869 17.4321 19.5065 17.1069 19.1135 17.1406C18.7207 17.1741 17.9352 16.7033 17.9352 16.5912C17.9352 16.5003 17.3828 16.5566 17 16.5156V24.2676C17 24.2676 17.1943 24.4124 17.2691 24.3225C17.3441 24.2328 17.4788 24.3525 17.733 24.2328C17.9873 24.1131 18.077 24.3676 18.077 24.4867C18.077 24.6066 18.436 24.8013 18.5856 24.9953C18.7354 25.1895 18.8102 25.3542 18.9747 25.2494C19.1392 25.145 19.4386 25.0849 19.4386 24.8901C19.4386 24.6963 20.1269 24.6662 20.1269 24.9205C20.1269 25.1746 20.8301 25.4738 21.2192 26.1613C21.6083 26.8497 21.5482 26.999 22.117 27.2232C22.6855 27.4479 22.6708 27.5674 22.5958 27.7621C22.521 27.9557 22.9399 28.0611 22.7006 28.2253C22.6088 28.2884 22.4799 28.3802 22.3554 28.4692C22.3664 28.568 22.4555 28.6315 22.5696 28.7263C22.7043 28.8387 22.3226 28.8387 22.435 28.9394C22.5472 29.0403 22.4125 29.1975 22.5247 29.3209C22.6369 29.4441 22.839 29.3993 22.9622 29.2984C23.0856 29.1975 23.1756 29.422 23.0744 29.5899C22.9737 29.7584 23.1868 29.882 23.2878 29.7584C23.3885 29.6346 23.6019 29.9602 23.7028 30.0162C23.804 30.0723 23.9049 30.2404 23.7365 30.2404C23.5681 30.2404 23.5908 30.5323 23.7141 30.5431C23.8377 30.5546 23.8262 30.7114 23.8262 30.8123C23.8262 30.913 24.219 31.0593 24.3652 31.0146C24.5111 30.9696 24.6455 31.104 24.713 31.2276C24.7804 31.3505 25.0496 31.4404 25.1507 31.362C25.2517 31.2835 25.3189 31.5076 25.3414 31.6644C25.3639 31.8217 25.5883 31.7319 25.7229 31.7211C25.8576 31.7094 25.9361 31.9002 26.026 31.8667C26.2236 31.7926 26.2832 32.1376 26.414 32.3398L40.3618 32.2646C40.3618 32.2646 40.3711 31.9185 40.5358 32.0382C40.7005 32.1579 40.5507 32.3521 40.7453 32.4273C40.9398 32.5019 41.0745 32.6216 41.1794 32.5764C41.284 32.5319 41.4636 32.3822 41.6433 32.592C41.8229 32.8009 41.9576 32.6216 42.0622 32.7562C42.167 32.8903 42.3614 32.9953 42.4961 32.8311C42.6052 32.6976 43.0192 32.8592 43.2198 32.9327C43.4656 32.7356 43.6604 32.3154 43.8802 32.3154C44.172 32.3154 44.9124 32.3824 44.9576 32.7637C45.0026 33.1455 45.4513 32.7864 45.4963 33.1455C45.5343 33.4499 45.8309 33.6904 45.7812 33.852C45.8668 33.9051 45.9736 33.9762 46.0696 34.0523C46.212 34.0043 46.5916 34.0652 46.843 34.1549C47.1574 34.267 47.6284 34.0205 47.7855 34.4021C47.9427 34.7834 48.3076 35.0708 47.9652 35.0973C47.6736 35.1198 47.292 34.7158 47.3143 34.9403C47.3368 35.1643 47.1574 35.0526 47.1574 35.3884C47.1574 35.7254 46.9328 36.1962 46.7981 36.1737C46.7933 36.1726 46.7894 36.17 46.7851 36.1685C46.7622 36.2958 46.7605 36.4613 46.867 36.5652C47.038 36.4412 47.2832 36.2273 47.4937 36.2413C47.8305 36.2638 47.9202 36.4656 48.1446 36.309C48.369 36.1517 48.414 36.0847 48.4589 36.1964C48.4648 36.2107 48.4602 36.2284 48.4511 36.247C48.5367 36.2014 48.5968 36.1571 48.6012 36.1212C48.6072 36.0648 48.5921 35.9894 48.5724 35.9205C48.3474 35.9536 48.2741 35.9704 48.2118 35.8148C48.1221 35.5908 48.885 35.3665 49.2443 35.4115C49.5847 35.4536 49.824 35.2151 49.9434 35.3614C50.1593 35.1678 50.5272 34.8506 50.6206 34.8506C50.7553 34.8506 52.3565 34.8357 52.3565 34.8357C52.3565 34.8357 52.9099 34.4917 52.9849 34.1778C53.0595 33.8639 53.4187 33.1155 53.6282 33.2805C53.8377 33.445 54.2867 33.3255 54.3014 33.475C54.3152 33.6133 54.1524 34.1212 54.7281 34.8815C54.9304 34.7534 55.1399 34.6533 55.259 34.6603C55.4609 34.6715 55.764 34.4025 55.8539 34.2338C55.9436 34.0657 56.0671 34.3911 55.8872 34.447C55.7078 34.5034 56.0333 34.6374 56.3474 34.6266C56.6615 34.6153 56.2015 34.7385 55.9659 34.7272C55.73 34.716 55.6291 34.7497 55.315 35.0641C55.0009 35.3782 55.0796 35.4677 55.2588 35.6245C55.4384 35.782 55.6741 35.7146 55.9209 35.5014C56.1678 35.2881 56.1568 35.0751 56.4034 35.0865C56.6501 35.0978 57.2899 34.8621 57.5703 34.7726C57.8509 34.6827 57.6713 34.6376 57.6713 34.5142C57.6713 34.3913 58.165 34.3913 58.3446 34.2675C58.5251 34.1448 58.312 34.0434 58.1548 34.0663ZM28.9466 19.5283C28.6522 19.8939 28.5541 19.9477 28.2506 19.8939C27.9473 19.8409 27.7601 19.9924 27.9114 20.0996C28.0636 20.2065 28.0724 20.2957 27.7601 20.367C27.4475 20.4383 27.2423 20.6792 27.1174 20.6524C26.9925 20.6257 27.6529 20.1527 27.4832 20.0281C27.3137 19.9034 26.8943 20.2424 26.8855 20.3938C26.8766 20.5451 26.5999 20.5544 26.4306 20.5451C26.2607 20.5362 26.0378 20.3755 26.2071 20.358C26.3768 20.3402 26.2607 20.1527 26.4929 20.0639C26.7246 19.9745 26.4479 19.8412 26.5197 19.7431C26.5912 19.6448 27.064 19.8412 27.0729 19.6629C27.0817 19.4842 26.5999 19.3326 26.4393 19.44C26.2787 19.5467 25.9038 19.7964 25.4576 19.6C25.3171 19.5385 26.5819 19.4045 26.7964 19.2083C27.0104 19.0119 27.9739 18.7888 28.0454 18.967C28.1168 19.1455 27.5279 19.2617 27.8133 19.4222C28.0986 19.5828 28.5629 19.4758 28.6697 19.3062C28.7767 19.1364 29.2411 19.163 28.9466 19.5283ZM31.7841 23.132C31.436 23.4351 31.4628 23.3548 31.1596 23.4081C30.8561 23.4617 31.0969 23.7651 30.7311 23.7914C30.3653 23.8186 29.4819 23.8545 29.3571 23.649C29.3152 23.5805 29.839 23.6309 29.8746 23.4799C29.9105 23.3278 30.0532 23.0871 30.2761 23.0871C30.4989 23.0871 30.4812 22.7935 30.1152 22.6143C29.7497 22.4361 30.6418 22.3199 30.847 22.6055C31.0521 22.8909 31.4183 23.0964 31.6232 22.8909C31.8284 22.6856 32.9972 22.115 32.9972 22.3825C32.9974 22.6502 32.1319 22.8289 31.7841 23.132ZM39.5939 31.2851C39.3483 31.3121 39.6164 30.6346 39.1672 30.3876C38.6395 30.0979 38.4043 29.5578 38.4043 29.2663C38.4043 28.9748 38.8531 28.84 39.0327 29.0645C39.2121 29.2888 39.4815 30.2085 39.6386 30.5C39.7956 30.7916 39.7956 31.2626 39.5939 31.2851Z" fill="black" fill-opacity="0.3"/>
</g>
</g>
<defs>
<filter id="filter0_d_0_775" x="2" y="1" width="62.0002" height="48.1058" filterUnits="userSpaceOnUse" color-interpolation-filters="sRGB">
<feFlood flood-opacity="0" result="BackgroundImageFix"/>
<feColorMatrix in="SourceAlpha" type="matrix" values="0 0 0 0 0 0 0 0 0 0 0 0 0 0 0 0 0 0 127 0" result="hardAlpha"/>
<feOffset dy="1"/>
<feGaussianBlur stdDeviation="1"/>
<feComposite in2="hardAlpha" operator="out"/>
<feColorMatrix type="matrix" values="0 0 0 0 0.341176 0 0 0 0 0.215686 0 0 0 0 0.933333 0 0 0 0.37 0"/>
<feBlend mode="normal" in2="BackgroundImageFix" result="effect1_dropShadow_0_775"/>
<feBlend mode="normal" in="SourceGraphic" in2="effect1_dropShadow_0_775" result="shape"/>
</filter>
<filter id="filter1_d_0_775" x="0" y="13" width="58.7781" height="39.1058" filterUnits="userSpaceOnUse" color-interpolation-filters="sRGB">
<feFlood flood-opacity="0" result="BackgroundImageFix"/>
<feColorMatrix in="SourceAlpha" type="matrix" values="0 0 0 0 0 0 0 0 0 0 0 0 0 0 0 0 0 0 127 0" result="hardAlpha"/>
<feOffset dy="2"/>
<feGaussianBlur stdDeviation="2"/>
<feColorMatrix type="matrix" values="0 0 0 0 0 0 0 0 0 0 0 0 0 0 0 0 0 0 0.01 0"/>
<feBlend mode="normal" in2="BackgroundImageFix" result="effect1_dropShadow_0_775"/>
<feBlend mode="normal" in="SourceGraphic" in2="effect1_dropShadow_0_775" result="shape"/>
</filter>
<filter id="filter2_d_0_775" x="13" y="0" width="53.0002" height="42.5652" filterUnits="userSpaceOnUse" color-interpolation-filters="sRGB">
<feFlood flood-opacity="0" result="BackgroundImageFix"/>
<feColorMatrix in="SourceAlpha" type="matrix" values="0 0 0 0 0 0 0 0 0 0 0 0 0 0 0 0 0 0 127 0" result="hardAlpha"/>
<feOffset dy="2"/>
<feGaussianBlur stdDeviation="2"/>
<feColorMatrix type="matrix" values="0 0 0 0 0 0 0 0 0 0 0 0 0 0 0 0 0 0 0.01 0"/>
<feBlend mode="normal" in2="BackgroundImageFix" result="effect1_dropShadow_0_775"/>
<feBlend mode="normal" in="SourceGraphic" in2="effect1_dropShadow_0_775" result="shape"/>
</filter>
</defs>
</svg>
