<svg width="20" height="27" viewBox="0 0 20 27" fill="none" xmlns="http://www.w3.org/2000/svg">
<g clip-path="url(#clip0_2101_1663)">
<path d="M11.2344 26.325C13.9062 22.9395 20 14.734 20 10.125C20 4.53516 15.5208 0 10 0C4.47917 0 0 4.53516 0 10.125C0 14.734 6.09375 22.9395 8.76562 26.325C9.40625 27.1318 10.5938 27.1318 11.2344 26.325ZM10 6.75C10.8841 6.75 11.7319 7.10558 12.357 7.73851C12.9821 8.37145 13.3333 9.22989 13.3333 10.125C13.3333 11.0201 12.9821 11.8786 12.357 12.5115C11.7319 13.1444 10.8841 13.5 10 13.5C9.11594 13.5 8.2681 13.1444 7.64298 12.5115C7.01786 11.8786 6.66667 11.0201 6.66667 10.125C6.66667 9.22989 7.01786 8.37145 7.64298 7.73851C8.2681 7.10558 9.11594 6.75 10 6.75Z" fill="white"/>
</g>
<defs>
<clipPath id="clip0_2101_1663">
<rect width="20" height="27" fill="white"/>
</clipPath>
</defs>
</svg>
