<svg width="33" height="30" viewBox="0 0 33 30" fill="none" xmlns="http://www.w3.org/2000/svg">
<g clip-path="url(#clip0_2102_1669)">
<path d="M27.6318 11.25C29.5911 11.25 33 12.9492 33 15C33 17.1094 29.5911 18.75 27.6318 18.75H20.9516L15.1938 29.0566C14.8672 29.6426 14.2599 30 13.601 30H10.3813C9.77396 30 9.33281 29.4023 9.49896 28.8047L12.3063 18.75H6.41667L3.94167 22.125C3.76979 22.3594 3.49479 22.5 3.20833 22.5H0.802083C0.355208 22.5 0 22.1309 0 21.6797C0 21.6035 0.0114583 21.5273 0.0286458 21.4512L1.83333 15L0.0286458 8.54883C0.00572917 8.47266 0 8.39648 0 8.32031C0 7.86328 0.360938 7.5 0.802083 7.5H3.20833C3.49479 7.5 3.76979 7.64062 3.94167 7.875L6.41667 11.25H12.312L9.50469 1.19531C9.33281 0.597656 9.77396 0 10.3813 0H13.601C14.2599 0 14.8672 0.363281 15.1938 0.943359L20.9516 11.25H27.6318Z" fill="white"/>
</g>
<defs>
<clipPath id="clip0_2102_1669">
<rect width="33" height="30" fill="white"/>
</clipPath>
</defs>
</svg>
