<svg width="28" height="32" viewBox="0 0 28 32" fill="none" xmlns="http://www.w3.org/2000/svg">
<path d="M0 5C0 3.34375 1.34375 2 3 2H9C10.6562 2 12 3.34375 12 5V11C12 12.6562 10.6562 14 9 14H3C1.34375 14 0 12.6562 0 11V5ZM4 6V10H8V6H4ZM0 21C0 19.3438 1.34375 18 3 18H9C10.6562 18 12 19.3438 12 21V27C12 28.6562 10.6562 30 9 30H3C1.34375 30 0 28.6562 0 27V21ZM4 22V26H8V22H4ZM19 2H25C26.6562 2 28 3.34375 28 5V11C28 12.6562 26.6562 14 25 14H19C17.3438 14 16 12.6562 16 11V5C16 3.34375 17.3438 2 19 2ZM24 6H20V10H24V6ZM16 19C16 18.45 16.45 18 17 18H21C21.55 18 22 18.45 22 19C22 19.55 22.45 20 23 20H25C25.55 20 26 19.55 26 19C26 18.45 26.45 18 27 18C27.55 18 28 18.45 28 19V25C28 25.55 27.55 26 27 26H23C22.45 26 22 25.55 22 25C22 24.45 21.55 24 21 24C20.45 24 20 24.45 20 25V29C20 29.55 19.55 30 19 30H17C16.45 30 16 29.55 16 29V19ZM23 30C22.7348 30 22.4804 29.8946 22.2929 29.7071C22.1054 29.5196 22 29.2652 22 29C22 28.7348 22.1054 28.4804 22.2929 28.2929C22.4804 28.1054 22.7348 28 23 28C23.2652 28 23.5196 28.1054 23.7071 28.2929C23.8946 28.4804 24 28.7348 24 29C24 29.2652 23.8946 29.5196 23.7071 29.7071C23.5196 29.8946 23.2652 30 23 30ZM27 30C26.7348 30 26.4804 29.8946 26.2929 29.7071C26.1054 29.5196 26 29.2652 26 29C26 28.7348 26.1054 28.4804 26.2929 28.2929C26.4804 28.1054 26.7348 28 27 28C27.2652 28 27.5196 28.1054 27.7071 28.2929C27.8946 28.4804 28 28.7348 28 29C28 29.2652 27.8946 29.5196 27.7071 29.7071C27.5196 29.8946 27.2652 30 27 30Z" fill="white"/>
</svg>
