<svg width="33" height="33" viewBox="0 0 33 33" fill="none" xmlns="http://www.w3.org/2000/svg">
<g clip-path="url(#clip0_4101_245)">
<path d="M33 6.1875C33 9.42305 29.1908 14.2506 27.5473 16.1777C27.3023 16.4613 26.9414 16.5709 26.6127 16.5H20.625C19.4842 16.5 18.5625 17.4217 18.5625 18.5625C18.5625 19.7033 19.4842 20.625 20.625 20.625H26.8125C30.2285 20.625 33 23.3965 33 26.8125C33 30.2285 30.2285 33 26.8125 33H8.99766C9.5584 32.3619 10.2416 31.5434 10.9313 30.6281C11.3373 30.0867 11.7563 29.4937 12.1559 28.875H26.8125C27.9533 28.875 28.875 27.9533 28.875 26.8125C28.875 25.6717 27.9533 24.75 26.8125 24.75H20.625C17.209 24.75 14.4375 21.9785 14.4375 18.5625C14.4375 15.1465 17.209 12.375 20.625 12.375H23.1902C21.8367 10.3447 20.625 8.01152 20.625 6.1875C20.625 2.77148 23.3965 0 26.8125 0C30.2285 0 33 2.77148 33 6.1875ZM7.54746 31.524C7.30254 31.8012 7.0834 32.0461 6.89648 32.2523L6.78047 32.3812L6.76758 32.3684C6.38086 32.6648 5.82656 32.6262 5.47852 32.2523C3.8543 30.4863 0 25.9424 0 22.6875C0 19.2715 2.77148 16.5 6.1875 16.5C9.60352 16.5 12.375 19.2715 12.375 22.6875C12.375 24.6211 11.015 27.0059 9.57129 28.9975C8.88164 29.9449 8.17266 30.8021 7.58613 31.4789L7.54746 31.524ZM8.25 22.6875C8.25 22.1405 8.0327 21.6159 7.64591 21.2291C7.25911 20.8423 6.73451 20.625 6.1875 20.625C5.64049 20.625 5.11589 20.8423 4.72909 21.2291C4.3423 21.6159 4.125 22.1405 4.125 22.6875C4.125 23.2345 4.3423 23.7591 4.72909 24.1459C5.11589 24.5327 5.64049 24.75 6.1875 24.75C6.73451 24.75 7.25911 24.5327 7.64591 24.1459C8.0327 23.7591 8.25 23.2345 8.25 22.6875ZM26.8125 8.25C27.3595 8.25 27.8841 8.0327 28.2709 7.64591C28.6577 7.25911 28.875 6.73451 28.875 6.1875C28.875 5.64049 28.6577 5.11589 28.2709 4.72909C27.8841 4.3423 27.3595 4.125 26.8125 4.125C26.2655 4.125 25.7409 4.3423 25.3541 4.72909C24.9673 5.11589 24.75 5.64049 24.75 6.1875C24.75 6.73451 24.9673 7.25911 25.3541 7.64591C25.7409 8.0327 26.2655 8.25 26.8125 8.25Z" fill="white"/>
</g>
<defs>
<clipPath id="clip0_4101_245">
<rect width="33" height="33" fill="white"/>
</clipPath>
</defs>
</svg>
