<svg width="22" height="21" viewBox="0 0 22 21" fill="none" xmlns="http://www.w3.org/2000/svg">
<g clip-path="url(#clip0_0_317)">
<path d="M17.875 8.53125C17.875 10.4139 17.2348 12.1529 16.1562 13.5639L21.5961 18.7605C22.1332 19.2732 22.1332 20.1059 21.5961 20.6186C21.059 21.1313 20.1867 21.1313 19.6496 20.6186L14.2098 15.4219C12.7316 16.4555 10.9098 17.0625 8.9375 17.0625C4.00039 17.0625 0 13.2439 0 8.53125C0 3.81855 4.00039 0 8.9375 0C13.8746 0 17.875 3.81855 17.875 8.53125ZM8.9375 14.4375C9.75005 14.4375 10.5547 14.2847 11.3054 13.9879C12.0561 13.6911 12.7382 13.256 13.3127 12.7076C13.8873 12.1592 14.3431 11.5081 14.654 10.7915C14.965 10.0749 15.125 9.30687 15.125 8.53125C15.125 7.75563 14.965 6.98761 14.654 6.27103C14.3431 5.55445 13.8873 4.90335 13.3127 4.3549C12.7382 3.80645 12.0561 3.3714 11.3054 3.07459C10.5547 2.77777 9.75005 2.625 8.9375 2.625C8.12495 2.625 7.32035 2.77777 6.56965 3.07459C5.81894 3.3714 5.13684 3.80645 4.56228 4.3549C3.98771 4.90335 3.53195 5.55445 3.221 6.27103C2.91004 6.98761 2.75 7.75563 2.75 8.53125C2.75 9.30687 2.91004 10.0749 3.221 10.7915C3.53195 11.5081 3.98771 12.1592 4.56228 12.7076C5.13684 13.256 5.81894 13.6911 6.56965 13.9879C7.32035 14.2847 8.12495 14.4375 8.9375 14.4375Z" fill="white"/>
</g>
<defs>
<clipPath id="clip0_0_317">
<rect width="22" height="21" fill="white"/>
</clipPath>
</defs>
</svg>
