<svg width="53" height="53" viewBox="0 0 53 53" fill="none" xmlns="http://www.w3.org/2000/svg">
<g clip-path="url(#clip0_4102_269)">
<path d="M21.8416 0.755499C21.2205 0.10335 20.2889 -0.145087 19.4194 0.0826473C18.5498 0.310382 17.877 1.00394 17.6493 1.87347L16.0137 8.34319L9.59573 6.53167C8.7262 6.28323 7.79456 6.53167 7.16312 7.16312C6.53167 7.79456 6.28323 8.7262 6.53167 9.59573L8.34319 16.0137L1.87347 17.6596C1.00394 17.877 0.320733 18.5602 0.0826473 19.4297C-0.155439 20.2992 0.10335 21.2205 0.755499 21.8416L5.53792 26.4998L0.755499 31.158C0.10335 31.7791 -0.145087 32.7108 0.0826473 33.5803C0.310382 34.4498 1.00394 35.1227 1.87347 35.3504L8.34319 36.986L6.53167 43.4039C6.28323 44.2735 6.53167 45.2051 7.16312 45.8366C7.79456 46.468 8.7262 46.7164 9.59573 46.468L16.0137 44.6565L17.6493 51.1262C17.8666 51.9957 18.5498 52.6789 19.4194 52.917C20.2889 53.1551 21.2102 52.8963 21.8416 52.2545L26.4998 47.4721L31.158 52.2545C31.7895 52.8963 32.7108 53.1551 33.5803 52.917C34.4498 52.6789 35.1227 51.9957 35.3504 51.1262L36.986 44.6565L43.4039 46.468C44.2735 46.7164 45.2051 46.468 45.8366 45.8366C46.468 45.2051 46.7164 44.2735 46.468 43.4039L44.6565 36.986L51.1262 35.3504C51.9957 35.133 52.6789 34.4498 52.917 33.5803C53.1551 32.7108 52.8963 31.7791 52.2545 31.158L47.4721 26.4998L52.2545 21.8416C52.8963 21.2102 53.1551 20.2889 52.917 19.4194C52.6789 18.5498 51.9957 17.877 51.1262 17.6493L44.6565 16.0137L46.468 9.59573C46.7164 8.7262 46.468 7.79456 45.8366 7.16312C45.2051 6.53167 44.2735 6.28323 43.4039 6.53167L36.986 8.34319L35.3401 1.87347C35.1227 1.00394 34.4395 0.320733 33.57 0.0826473C32.7004 -0.155439 31.7791 0.10335 31.158 0.755499L26.4998 5.53792L21.8416 0.755499Z" fill="white"/>
</g>
<defs>
<clipPath id="clip0_4102_269">
<rect width="53" height="53" fill="white"/>
</clipPath>
</defs>
</svg>
