<svg width="29" height="26" viewBox="0 0 29 26" fill="none" xmlns="http://www.w3.org/2000/svg">
<g clip-path="url(#clip0_2102_1665)">
<path d="M15.9551 0.914062C15.6882 0.355469 15.1243 0 14.5051 0C13.8858 0 13.3269 0.355469 13.055 0.914062L9.81772 7.63242L2.58786 8.70898C1.9837 8.80039 1.48022 9.22695 1.29394 9.81094C1.10765 10.3949 1.2587 11.0398 1.69168 11.4715L6.93786 16.707L5.69932 24.1059C5.59863 24.7152 5.85036 25.3348 6.3488 25.6953C6.84724 26.0559 7.50679 26.1016 8.05054 25.8121L14.5101 22.3336L20.9696 25.8121C21.5134 26.1016 22.1729 26.0609 22.6714 25.6953C23.1698 25.3297 23.4215 24.7152 23.3209 24.1059L22.0773 16.707L27.3235 11.4715C27.7564 11.0398 27.9125 10.3949 27.7212 9.81094C27.5299 9.22695 27.0314 8.80039 26.4273 8.70898L19.1924 7.63242L15.9551 0.914062Z" fill="white"/>
</g>
<defs>
<clipPath id="clip0_2102_1665">
<rect width="29" height="26" fill="white"/>
</clipPath>
</defs>
</svg>
